<?xml version="1.0" encoding="UTF-8"?>
<svg xmlns="http://www.w3.org/2000/svg" xmlns:xlink="http://www.w3.org/1999/xlink" id="Calque_2" data-name="Calque 2" viewBox="0 0 1595.22 544.42">
  <defs>
    <style>
      .cls-1 {
        clip-path: url(#clippath);
      }

      .cls-2 {
        fill: none;
      }

      .cls-2, .cls-3, .cls-4, .cls-5, .cls-6, .cls-7, .cls-8 {
        stroke-width: 0px;
      }

      .cls-9 {
        clip-path: url(#clippath-1);
      }

      .cls-10 {
        clip-path: url(#clippath-3);
      }

      .cls-11 {
        clip-path: url(#clippath-2);
      }

      .cls-3 {
        fill: url(#Dégradé_sans_nom_6);
      }

      .cls-4 {
        fill: #406b77;
      }

      .cls-5 {
        fill: #fff;
      }

      .cls-6 {
        fill: #f6a617;
      }

      .cls-7 {
        fill: #025764;
      }

      .cls-8 {
        fill: #00404a;
      }
    </style>
    <clipPath id="clippath">
      <polygon class="cls-2" points="560.4 270.67 560.4 24.32 726.6 24.32 726.6 91.91 649.78 91.91 649.78 114.81 719.59 114.81 719.59 179.44 649.78 179.44 649.78 203.08 728.82 203.08 728.82 270.67 560.4 270.67"></polygon>
    </clipPath>
    <linearGradient id="Dégradé_sans_nom_6" data-name="Dégradé sans nom 6" x1="531.95" y1="123.25" x2="1634.84" y2="123.25" gradientUnits="userSpaceOnUse">
      <stop offset="0" stop-color="#1a434e"></stop>
      <stop offset="1" stop-color="#336f7c"></stop>
    </linearGradient>
    <clipPath id="clippath-1">
      <path class="cls-2" d="m774.04,270.67V24.32h85.32l57.25,93.07c9.23,14.77,15.14,24.38,23.27,43.58h2.58c-3.7-15.51-7.76-40.26-7.76-58.36V24.32h85.69v246.35h-85.69l-61.31-97.14c-5.54-8.87-12.19-21.79-16.99-32.13h-2.58c2.58,13.3,5.54,34.35,5.54,45.43v83.84h-85.32Z"></path>
    </clipPath>
    <clipPath id="clippath-2">
      <path class="cls-2" d="m1289.43,58.3c-21.05-21.42-55.4-39.52-102.31-39.52s-81.25,18.1-102.31,39.52c-19.2,19.58-34.34,49.86-34.34,89.02s15.14,69.8,34.34,89.38c21.06,21.42,55.41,39.51,102.31,39.51s81.26-18.09,102.31-39.51c19.2-19.58,34.35-49.86,34.35-89.38s-15.15-69.44-34.35-89.02Zm-70.18,125.95c-7.38,7.39-18.46,12.56-32.13,12.56s-24.74-5.17-32.13-12.56c-8.87-8.86-14.04-22.53-14.04-36.57,0-13.29,5.17-27.7,14.04-36.93,5.91-6.28,16.25-12.56,32.13-12.56,14.78,0,25.49,5.91,32.13,12.56,8.87,8.5,14.04,21.42,14.04,36.93s-5.91,28.44-14.04,36.57Z"></path>
    </clipPath>
    <clipPath id="clippath-3">
      <path class="cls-2" d="m1327.45,24.32h93.44l34.35,115.97c2.95,9.6,4.8,24.01,5.54,32.87h2.22c.37-9.97,2.22-22.53,5.17-32.87l33.61-115.97h93.44l-95.29,246.35h-76.82l-95.66-246.35Z"></path>
    </clipPath>
  </defs>
  <g id="Calque_1-2" data-name="Calque 1">
    <g class="cls-1">
      <rect class="cls-3" x="531.95" y="-68.38" width="1102.89" height="383.27"></rect>
    </g>
    <g class="cls-9">
      <rect class="cls-3" x="531.95" y="-68.38" width="1102.89" height="383.27"></rect>
    </g>
    <g class="cls-11">
      <rect class="cls-3" x="531.95" y="-68.38" width="1102.89" height="383.27"></rect>
    </g>
    <g class="cls-10">
      <rect class="cls-3" x="531.95" y="-68.38" width="1102.89" height="383.27"></rect>
    </g>
    <g>
      <path class="cls-4" d="m562.96,405.68v-57.19h31.91v7.89h-22.62v14.34h22.62v8.16h-22.62v18.48h22.62v8.32h-31.91Zm10.59-62.81l7.42-10.62h8.79l-11.41,10.62h-4.8Z"></path>
      <path class="cls-4" d="m656,362.4c-2.63-2.24-5.41-3.92-8.34-5.04s-6.01-1.68-9.24-1.68c-6.25,0-11.33,2.01-15.25,6.02-3.92,4.01-5.88,9.21-5.88,15.59s1.91,11.26,5.72,15.27c3.81,4.01,8.63,6.02,14.43,6.02,3.38,0,6.61-.6,9.67-1.8,3.06-1.2,6-3.01,8.81-5.43v10.51c-2.5,1.8-5.22,3.14-8.16,4.02-2.94.88-6.13,1.33-9.57,1.33-4.38,0-8.42-.72-12.13-2.15s-6.97-3.54-9.79-6.33c-2.79-2.73-4.93-5.96-6.43-9.67-1.5-3.71-2.25-7.66-2.25-11.86s.75-8.13,2.25-11.82c1.5-3.69,3.67-6.92,6.5-9.71,2.84-2.81,6.09-4.94,9.77-6.39s7.64-2.17,11.91-2.17c3.36,0,6.56.49,9.61,1.46s6,2.46,8.87,4.43l-.51,9.38Z"></path>
      <path class="cls-4" d="m730.71,377.2c0,4.06-.76,7.9-2.29,11.52s-3.74,6.85-6.66,9.69c-2.94,2.84-6.26,5.01-9.96,6.52-3.7,1.51-7.58,2.27-11.64,2.27s-8.04-.76-11.78-2.29c-3.74-1.52-7.04-3.69-9.9-6.5-2.92-2.84-5.13-6.05-6.64-9.65-1.51-3.59-2.27-7.45-2.27-11.56s.75-7.94,2.27-11.56c1.51-3.62,3.72-6.86,6.64-9.73,2.92-2.84,6.22-5,9.92-6.48,3.7-1.48,7.62-2.23,11.76-2.23s8.01.74,11.7,2.23c3.68,1.48,6.99,3.65,9.9,6.48,2.92,2.89,5.14,6.15,6.66,9.79s2.29,7.47,2.29,11.5Zm-9.69,0c0-2.89-.53-5.64-1.58-8.24s-2.57-4.92-4.55-6.95c-1.93-2.01-4.16-3.55-6.7-4.63s-5.21-1.62-8.03-1.62-5.49.53-8.03,1.6-4.8,2.62-6.78,4.65c-1.98,2.01-3.49,4.31-4.53,6.91-1.04,2.6-1.56,5.37-1.56,8.28s.52,5.62,1.56,8.2c1.04,2.58,2.55,4.88,4.53,6.91,1.98,2.03,4.23,3.58,6.76,4.65,2.53,1.07,5.21,1.6,8.05,1.6s5.44-.53,7.95-1.6c2.51-1.07,4.77-2.62,6.78-4.65,1.98-2.03,3.5-4.34,4.55-6.93s1.58-5.32,1.58-8.18Z"></path>
      <path class="cls-4" d="m745.94,405.68v-57.19h9.3v48.87h20.78v8.32h-30.08Z"></path>
      <path class="cls-4" d="m788.12,405.68v-57.19h31.91v7.89h-22.62v14.34h22.62v8.16h-22.62v18.48h22.62v8.32h-31.91Z"></path>
      <path class="cls-4" d="m863.95,405.68v-59.45l36.33,34.96c.99.99,1.99,2.04,3.01,3.16s2.08,2.38,3.2,3.79v-39.65h8.59v59.41l-37.07-35.59c-.99-.96-1.95-1.98-2.87-3.05-.92-1.07-1.8-2.19-2.64-3.36v39.77h-8.55Z"></path>
      <path class="cls-4" d="m991.4,377.2c0,4.06-.76,7.9-2.29,11.52s-3.74,6.85-6.66,9.69c-2.94,2.84-6.26,5.01-9.96,6.52-3.7,1.51-7.58,2.27-11.64,2.27s-8.04-.76-11.78-2.29c-3.74-1.52-7.04-3.69-9.9-6.5-2.92-2.84-5.13-6.05-6.64-9.65-1.51-3.59-2.27-7.45-2.27-11.56s.75-7.94,2.27-11.56c1.51-3.62,3.72-6.86,6.64-9.73,2.92-2.84,6.22-5,9.92-6.48,3.7-1.48,7.62-2.23,11.76-2.23s8.01.74,11.7,2.23c3.68,1.48,6.99,3.65,9.9,6.48,2.92,2.89,5.14,6.15,6.66,9.79s2.29,7.47,2.29,11.5Zm-9.69,0c0-2.89-.53-5.64-1.58-8.24s-2.57-4.92-4.55-6.95c-1.93-2.01-4.16-3.55-6.7-4.63s-5.21-1.62-8.03-1.62-5.49.53-8.03,1.6-4.8,2.62-6.78,4.65c-1.98,2.01-3.49,4.31-4.53,6.91-1.04,2.6-1.56,5.37-1.56,8.28s.52,5.62,1.56,8.2c1.04,2.58,2.55,4.88,4.53,6.91,1.98,2.03,4.23,3.58,6.76,4.65,2.53,1.07,5.21,1.6,8.05,1.6s5.44-.53,7.95-1.6c2.51-1.07,4.77-2.62,6.78-4.65,1.98-2.03,3.5-4.34,4.55-6.93s1.58-5.32,1.58-8.18Z"></path>
      <path class="cls-4" d="m1006.4,348.49h9.18v34.73c0,5.16,1.19,9.03,3.57,11.62s5.94,3.89,10.68,3.89,8.26-1.29,10.64-3.89,3.57-6.46,3.57-11.62v-34.73h9.3v35.59c0,7.73-1.95,13.52-5.86,17.36s-9.79,5.76-17.66,5.76-13.74-1.91-17.62-5.74c-3.88-3.83-5.82-9.62-5.82-17.38v-35.59Z"></path>
      <path class="cls-4" d="m1088.88,407.9l-25.51-59.41h9.65l12.81,30.47c.75,1.77,1.38,3.4,1.88,4.9.49,1.5.88,2.92,1.17,4.28.34-1.43.77-2.92,1.29-4.45.52-1.54,1.13-3.11,1.84-4.73l12.77-30.47h9.61l-25.51,59.41Z"></path>
      <path class="cls-4" d="m1124.73,405.68v-57.19h31.91v7.89h-22.62v14.34h22.62v8.16h-22.62v18.48h22.62v8.32h-31.91Z"></path>
      <path class="cls-4" d="m1171.87,405.68v-57.19h9.3v48.87h20.78v8.32h-30.08Z"></path>
      <path class="cls-4" d="m1214.05,405.68v-57.19h9.3v48.87h20.78v8.32h-30.08Z"></path>
      <path class="cls-4" d="m1256.23,405.68v-57.19h31.91v7.89h-22.62v14.34h22.62v8.16h-22.62v18.48h22.62v8.32h-31.91Z"></path>
      <path class="cls-4" d="m1340.78,380.01v25.66h-8.71v-57.19h14.06c4.17,0,7.23.23,9.2.68,1.97.46,3.68,1.21,5.14,2.25,1.8,1.33,3.2,3.12,4.22,5.37s1.52,4.73,1.52,7.44-.51,5.21-1.52,7.5-2.42,4.09-4.22,5.39c-1.46,1.04-3.17,1.78-5.14,2.23-1.97.44-5.03.66-9.2.66h-5.35Zm.59-7.62h2.38c5.16,0,8.59-.56,10.31-1.68s2.58-3.1,2.58-5.94c0-3.05-.92-5.2-2.75-6.45s-5.21-1.88-10.14-1.88h-2.38v15.94Z"></path>
      <path class="cls-4" d="m1437.84,377.2c0,4.06-.76,7.9-2.29,11.52s-3.74,6.85-6.66,9.69c-2.94,2.84-6.26,5.01-9.96,6.52-3.7,1.51-7.58,2.27-11.64,2.27s-8.04-.76-11.78-2.29c-3.74-1.52-7.04-3.69-9.9-6.5-2.92-2.84-5.13-6.05-6.64-9.65-1.51-3.59-2.27-7.45-2.27-11.56s.75-7.94,2.27-11.56c1.51-3.62,3.72-6.86,6.64-9.73,2.92-2.84,6.22-5,9.92-6.48,3.7-1.48,7.62-2.23,11.76-2.23s8.01.74,11.7,2.23c3.68,1.48,6.99,3.65,9.9,6.48,2.92,2.89,5.14,6.15,6.66,9.79s2.29,7.47,2.29,11.5Zm-9.69,0c0-2.89-.53-5.64-1.58-8.24s-2.57-4.92-4.55-6.95c-1.93-2.01-4.16-3.55-6.7-4.63s-5.21-1.62-8.03-1.62-5.49.53-8.03,1.6-4.8,2.62-6.78,4.65c-1.98,2.01-3.49,4.31-4.53,6.91-1.04,2.6-1.56,5.37-1.56,8.28s.52,5.62,1.56,8.2c1.04,2.58,2.55,4.88,4.53,6.91,1.98,2.03,4.23,3.58,6.76,4.65,2.53,1.07,5.21,1.6,8.05,1.6s5.44-.53,7.95-1.6c2.51-1.07,4.77-2.62,6.78-4.65,1.98-2.03,3.5-4.34,4.55-6.93s1.58-5.32,1.58-8.18Z"></path>
      <path class="cls-4" d="m1452.82,348.49h9.18v34.73c0,5.16,1.19,9.03,3.57,11.62s5.94,3.89,10.68,3.89,8.26-1.29,10.64-3.89,3.57-6.46,3.57-11.62v-34.73h9.3v35.59c0,7.73-1.95,13.52-5.86,17.36s-9.79,5.76-17.66,5.76-13.74-1.91-17.62-5.74c-3.88-3.83-5.82-9.62-5.82-17.38v-35.59Z"></path>
      <path class="cls-4" d="m1525.86,380.09v25.59h-8.71v-57.19h12.97c3.8,0,6.75.25,8.85.74,2.1.49,3.89,1.31,5.37,2.46,1.77,1.38,3.14,3.16,4.1,5.35.96,2.19,1.45,4.58,1.45,7.19,0,4.58-1.11,8.17-3.32,10.76-2.21,2.59-5.48,4.15-9.8,4.67l19.69,26.02h-10.51l-19.02-25.59h-1.05Zm.59-7.23h1.68c4.92,0,8.19-.57,9.8-1.72,1.61-1.15,2.42-3.18,2.42-6.09,0-3.15-.87-5.37-2.6-6.66-1.73-1.29-4.94-1.93-9.63-1.93h-1.68v16.41Z"></path>
      <path class="cls-4" d="m562.96,501.68v-57.19h9.3v48.87h20.78v8.32h-30.08Z"></path>
      <path class="cls-4" d="m639.47,501.68l-6.48-14.73h-22.66l-6.64,14.73h-9.77l27.7-59.45,27.66,59.45h-9.8Zm-25.7-22.46h15.94l-5.86-13.05c-.34-.83-.69-1.79-1.05-2.87-.37-1.08-.73-2.29-1.09-3.61-.31,1.25-.64,2.42-1,3.5s-.71,2.08-1.07,2.99l-5.86,13.05Z"></path>
      <path class="cls-4" d="m727.69,473.44c-.1-.44-.27-1.67-.51-3.67-.21-1.67-.39-3.05-.55-4.14-.23,1.3-.57,2.6-1,3.91s-.97,2.63-1.62,3.98l-14.96,30.47-14.96-31.09c-.62-1.28-1.17-2.51-1.62-3.71-.46-1.2-.85-2.38-1.19-3.55-.03,1.2-.12,2.46-.29,3.77-.17,1.31-.42,2.69-.76,4.12l-6.13,28.16h-8.55l13.52-59.61,16.88,36.09c.26.57.66,1.52,1.19,2.85.53,1.33,1.18,2.97,1.93,4.92.55-1.64,1.41-3.72,2.58-6.25.31-.68.55-1.2.7-1.56l16.48-36.05,13.83,59.61h-8.63l-6.33-28.24Z"></path>
      <path class="cls-4" d="m788.97,501.68l-6.48-14.73h-22.66l-6.64,14.73h-9.77l27.7-59.45,27.66,59.45h-9.8Zm-25.7-22.46h15.94l-5.86-13.05c-.34-.83-.69-1.79-1.05-2.87-.37-1.08-.73-2.29-1.09-3.61-.31,1.25-.64,2.42-1,3.5s-.71,2.08-1.07,2.99l-5.86,13.05Z"></path>
      <path class="cls-4" d="m798.56,438.87l7.54-10.62h8.12l7.54,10.62h-4.8l-6.8-6.13-6.8,6.13h-4.8Zm6.88,62.81v-57.19h9.3v57.19h-9.3Z"></path>
      <path class="cls-4" d="m847.69,452.38v49.3h-9.3v-49.3h-15.2v-7.89h39.61v7.89h-15.12Z"></path>
      <path class="cls-4" d="m879.75,476.09v25.59h-8.71v-57.19h12.97c3.8,0,6.75.25,8.85.74,2.1.49,3.89,1.31,5.37,2.46,1.77,1.38,3.14,3.16,4.1,5.35.96,2.19,1.45,4.58,1.45,7.19,0,4.58-1.11,8.17-3.32,10.76-2.21,2.59-5.48,4.15-9.8,4.67l19.69,26.02h-10.51l-19.02-25.59h-1.05Zm.59-7.23h1.68c4.92,0,8.19-.57,9.8-1.72,1.61-1.15,2.42-3.18,2.42-6.09,0-3.15-.87-5.37-2.6-6.66-1.73-1.29-4.94-1.93-9.63-1.93h-1.68v16.41Z"></path>
      <path class="cls-4" d="m917.12,501.68v-57.19h9.3v57.19h-9.3Z"></path>
      <path class="cls-4" d="m937.61,490.23l7.42-3.44c.7,2.55,1.99,4.5,3.87,5.84s4.27,2.01,7.19,2.01c2.76,0,4.95-.77,6.58-2.3,1.63-1.54,2.44-3.59,2.44-6.17,0-3.36-2.79-6.35-8.36-8.98-.78-.39-1.38-.68-1.8-.86-6.3-3.07-10.5-5.85-12.6-8.34-2.1-2.49-3.14-5.53-3.14-9.12,0-4.66,1.58-8.44,4.75-11.33s7.31-4.34,12.44-4.34c4.22,0,7.75.81,10.59,2.44,2.84,1.63,4.8,3.96,5.9,7.01l-7.27,3.75c-1.15-1.8-2.4-3.11-3.77-3.95s-2.94-1.25-4.71-1.25c-2.5,0-4.49.65-5.96,1.95-1.47,1.3-2.21,3.05-2.21,5.23,0,3.44,3.23,6.64,9.69,9.61.49.23.88.42,1.17.55,5.65,2.6,9.53,5.15,11.64,7.64s3.16,5.59,3.16,9.32c0,5.42-1.71,9.72-5.12,12.91-3.41,3.19-8.02,4.79-13.83,4.79-4.87,0-8.86-1.12-11.97-3.36-3.11-2.24-5.15-5.44-6.11-9.61Z"></path>
      <path class="cls-4" d="m985.92,501.68v-57.19h31.91v7.89h-22.62v14.34h22.62v8.16h-22.62v18.48h22.62v8.32h-31.91Z"></path>
      <path class="cls-4" d="m1054.88,501.68v-57.19h12.54c8.15,0,13.89.41,17.21,1.23s6.23,2.19,8.73,4.12c3.31,2.53,5.81,5.77,7.52,9.73,1.71,3.96,2.56,8.48,2.56,13.55s-.85,9.58-2.56,13.5c-1.71,3.92-4.21,7.15-7.52,9.71-2.5,1.93-5.35,3.3-8.54,4.12-3.19.82-8.16,1.23-14.9,1.23h-15.04Zm9.3-8.4h7.81c4.3,0,7.52-.29,9.67-.86s4.02-1.54,5.61-2.89c2.16-1.85,3.78-4.15,4.86-6.89,1.08-2.75,1.62-5.94,1.62-9.59s-.54-6.84-1.62-9.59c-1.08-2.75-2.7-5.04-4.86-6.89-1.62-1.35-3.55-2.32-5.8-2.89-2.25-.57-5.78-.86-10.57-.86h-6.72v40.47Z"></path>
      <path class="cls-4" d="m1115.22,501.68v-57.19h31.91v7.89h-22.62v14.34h22.62v8.16h-22.62v18.48h22.62v8.32h-31.91Z"></path>
      <path class="cls-4" d="m1184.18,501.68v-57.19h9.3v48.87h20.78v8.32h-30.08Z"></path>
      <path class="cls-4" d="m1209.01,464.41l7.42-21.21,7.15,2.3-9.61,20.74-4.96-1.84Z"></path>
      <path class="cls-4" d="m1236.02,501.68v-57.19h31.91v7.89h-22.62v14.34h22.62v8.16h-22.62v18.48h22.62v8.32h-31.91Zm10.59-62.81l7.42-10.62h8.79l-11.41,10.62h-4.8Z"></path>
      <path class="cls-4" d="m1279.72,501.68v-59.45l36.33,34.96c.99.99,1.99,2.04,3.01,3.16s2.08,2.38,3.2,3.79v-39.65h8.59v59.41l-37.07-35.59c-.99-.96-1.95-1.98-2.87-3.05-.92-1.07-1.8-2.19-2.64-3.36v39.77h-8.55Z"></path>
      <path class="cls-4" d="m1345.1,501.68v-57.19h31.91v7.89h-22.62v14.34h22.62v8.16h-22.62v18.48h22.62v8.32h-31.91Z"></path>
      <path class="cls-4" d="m1397.51,476.09v25.59h-8.71v-57.19h12.97c3.8,0,6.75.25,8.85.74,2.1.49,3.89,1.31,5.37,2.46,1.77,1.38,3.14,3.16,4.1,5.35.96,2.19,1.45,4.58,1.45,7.19,0,4.58-1.11,8.17-3.32,10.76-2.21,2.59-5.48,4.15-9.8,4.67l19.69,26.02h-10.51l-19.02-25.59h-1.05Zm.59-7.23h1.68c4.92,0,8.19-.57,9.8-1.72,1.61-1.15,2.42-3.18,2.42-6.09,0-3.15-.87-5.37-2.6-6.66-1.73-1.29-4.94-1.93-9.63-1.93h-1.68v16.41Z"></path>
      <path class="cls-4" d="m1466.4,472.38h22.66c0,.39.01.94.04,1.64.08,1.85.12,3.1.12,3.75,0,8.05-2.3,14.3-6.91,18.75s-11.11,6.68-19.49,6.68c-4.69,0-8.87-.69-12.54-2.07-3.67-1.38-6.89-3.46-9.65-6.25-2.71-2.76-4.79-6-6.23-9.73s-2.17-7.71-2.17-11.95.74-8.31,2.21-11.95c1.47-3.65,3.65-6.86,6.54-9.65,2.79-2.73,6.05-4.82,9.8-6.25s7.76-2.15,12.03-2.15c4.5,0,8.54.82,12.09,2.46s6.72,4.15,9.51,7.54l-6.8,5.12c-1.93-2.24-4.1-3.91-6.52-5s-5.13-1.64-8.12-1.64c-6.2,0-11.26,1.99-15.18,5.96-3.92,3.97-5.88,9.13-5.88,15.49s1.96,11.7,5.88,15.72c3.92,4.02,9,6.04,15.25,6.04,5.31,0,9.49-1.24,12.54-3.71s4.57-5.85,4.57-10.12v-.82h-13.75v-7.85Z"></path>
      <path class="cls-4" d="m1500.26,501.68v-57.19h9.3v57.19h-9.3Z"></path>
      <path class="cls-4" d="m1524.03,501.68v-57.19h31.91v7.89h-22.62v14.34h22.62v8.16h-22.62v18.48h22.62v8.32h-31.91Z"></path>
    </g>
    <g>
      <g>
        <g>
          <path class="cls-5" d="m24.91,163.85c-.48.67-.93,1.34-1.37,2.04.54-.83,1.12-1.66,1.69-2.46-.13.13-.22.29-.32.42Z"></path>
          <path class="cls-5" d="m50.23,428.04l.64,1.47c1.05,2.4,2.24,4.7,3.35,7.06.42.77.83,1.57,1.21,2.4.1.16.19.32.26.45.19.35.42.67.61,1.02.38.8.8,1.57,1.25,2.33.03.06.03.16.06.19.03.03.1.06.1.13.1.16.19.35.29.58.22.32.45.73.64,1.15.06.06.13.16.19.29.67,1.18,1.34,2.3,1.98,3.45.13.19.26.35.35.51.13.26.26.45.38.67.19.26.38.61.57.86.67,1.21,1.4,2.36,2.14,3.51.1.06.16.22.22.32.61.93,1.25,1.85,1.85,2.78.67.93,1.31,1.92,2.01,2.91.42.61.86,1.18,1.28,1.82.1.1.16.26.22.32,0,0,0,.03.03.03.32.45.64.89.96,1.34.13.16.26.32.38.54.03.03.06.06.06.1.89,1.18,1.82,2.4,2.71,3.58,6.83,8.85,14.53,17.09,22.83,24.66h.03c4.18,3.77,8.56,7.38,13.03,10.79.16.13.29.26.48.38,10.22,7.7,21.21,14.44,32.73,19.96t.03.06l.19.03h.03s.03.03.1.03c1.12.54,2.33,1.15,3.58,1.69,1.09.48,2.11.96,3.16,1.37.22.13.48.22.7.35h.03l.7.29h.03c.48.22.96.42,1.44.64.13.03.22.06.32.1.57.22,1.09.48,1.63.67.89.35,1.79.7,2.68,1.05.42.13.8.29,1.21.48h.03l.93.32c.8.32,1.66.61,2.43.86.06,0,.1.03.13.06.54.19,1.05.38,1.6.54.22.1.48.16.7.22.8.32,1.66.58,2.52.86l.03.03h.03l.93.29,4.76,1.44c.77.26,1.5.45,2.27.64.48.13.96.29,1.4.38h.03c1.21.35,2.43.64,3.64.96,1.6.42,3.19.73,4.76,1.12.89.22,1.82.38,2.71.54,1.37.29,2.75.54,4.09.8.32.03.67.13.96.19.1,0,.19,0,.29.03.73.13,1.47.26,2.17.38.29.06.57.06.86.1.51.06,1.02.16,1.53.26.35.03.73.13,1.09.16,2.04.32,4.18.54,6.67.83.86.06,1.79.19,2.62.29h.19c.26.06.54.06.77.1,2.14.16,4.18.32,6.32.42,1.44.13,2.84.19,4.22.22.89.06,1.76.06,2.62.06,1.44.03,2.84.06,4.28.06,26.76,0,52.95-5.56,77.19-16.13,9.42-4.12,18.55-8.97,27.27-14.6,1.12-.73,2.17-1.47,3.26-2.2.51-.32,1.02-.7,1.53-1.02,7.57-5.27,14.75-11.02,21.56-17.28,13.44-12.46,25.17-26.76,34.55-42.35,3.32-5.62,6.42-11.37,9.17-17.25,11.98-25.52,18.27-53.53,18.27-82.05,0-2.2-.03-4.41-.13-6.55-.03-1.63-.1-3.19-.19-4.76-.06-.83-.13-1.69-.16-2.52-.03-.48-.06-.99-.13-1.47-.06-.67-1.25-14.08-3.7-23.22.1-.26.1-.51,0-.83-4.28-20.6-11.88-40.31-22.64-58.48l.16-45.67v-.29l.03-5.97v-.96l.54-110.73c0-.8-.48-1.5-1.21-1.88l-76.84-35.04c-.1-.03-.19-.1-.26-.19-.1-.06-.29-.1-.45-.13l-.06-.06c-.67-.29-1.41-.26-1.98.13-.22.19-.42.35-.61.57l-75.4,36.92c-.7.35-1.18,1.09-1.18,1.85v35.04l-.03,2.11h.03v29.86c-2.75-.13-5.62-.22-8.46-.22-10.73,0-21.4.89-31.87,2.65-3.07-4.18-6.45-8.18-10.16-12.01-.22-.22-.51-.51-.77-.8-3.42-3.39-7.03-6.55-10.76-9.42-.89-.64-1.76-1.31-2.68-1.98l-4.44-2.94c-14.47-9.39-31.04-15.01-48.42-16.42-2.91-.26-5.84-.38-8.78-.38-28.39,0-55.06,11.11-75.11,31.14C13.6,167.11,2.55,193.78,2.55,222.1c0,18.52,4.69,36.31,13.54,51.99l.19.26,2.59,4.31c.13.26.26.45.42.67,4.09,6.42,8.94,12.42,14.44,17.95.32.29.61.54.83.8,1.66,1.66,3.39,3.19,5.14,4.69-3.9,15.36-5.84,31.24-5.84,47.27,0,23.57,4.18,46.5,12.39,68.06l3.99,9.93Z"></path>
        </g>
        <path class="cls-6" d="m488.53,194.83c0,59.7-26.84,113.13-69.12,148.85-.03-1.64-.1-3.21-.19-4.79-.06-.84-.13-1.7-.16-2.54-.03-.48-.06-1-.13-1.48-.06-.68-1.25-14.18-3.73-23.37.1-.26.1-.51,0-.84-4.31-20.74-11.96-40.57-22.79-58.87l.16-45.97v-.29l.03-6.01v-.96l.55-111.46c0-.8-.48-1.51-1.22-1.9l-77.35-35.27c-.1-.03-.19-.1-.26-.19-.1-.06-.29-.1-.45-.13l-.06-.06c-.68-.29-1.41-.26-1.99.13-.23.19-.42.35-.61.58l-75.9,37.16c-.71.35-1.19,1.09-1.19,1.86v35.27l-.03,2.12h.03v30.06c-2.76-.13-5.66-.23-8.52-.23-10.8,0-21.54.9-32.08,2.67-3.09-4.21-6.49-8.23-10.22-12.09-.22-.23-.51-.51-.77-.8-3.44-3.41-7.07-6.59-10.83-9.48-.9-.64-1.77-1.32-2.7-1.99l-4.47-2.96c-14.56-9.45-31.25-15.11-48.74-16.52C146.17,47.36,214.39,0,293.7,0c107.6,0,194.82,87.22,194.82,194.83Z"></path>
        <path class="cls-7" d="m40.89,142.22c.22-.19.45-.37.68-.56-.23.19-.45.37-.68.56Z"></path>
        <g>
          <path class="cls-7" d="m419.21,338.9c-.04-.85-.11-1.7-.15-2.55-.04-.48-.07-1-.11-1.48-.07-.67-1.26-14.16-3.74-23.37.07-.26.07-.52,0-.81-4.33-20.75-11.98-40.57-22.82-58.88l.19-45.97v-.3l.04-5.99v-.96l.52-111.47c0-.81-.48-1.52-1.22-1.89l-77.33-35.28c-.11-.04-.19-.11-.26-.18-.11-.07-.3-.11-.44-.15l-.07-.04c-.67-.3-1.41-.26-2,.11-.22.18-.41.37-.59.59l-75.93,37.17c-.7.33-1.18,1.07-1.18,1.85v35.28l-.04,2.11h.04v30.07c-2.77-.15-5.66-.22-8.51-.22-10.8,0-21.56.89-32.1,2.66-3.07-4.22-6.47-8.25-10.21-12.09-.22-.22-.52-.52-.78-.81-3.44-3.4-7.06-6.58-10.84-9.47-.89-.67-1.78-1.33-2.7-2l-4.47-2.96c-17.01-11.02-36.87-16.9-57.58-16.9-28.55,0-55.4,11.17-75.59,31.32C11.13,166.49,0,193.34,0,221.85c0,18.64,4.73,36.54,13.65,52.33l.19.26,2.59,4.33c.15.26.26.48.44.7,4.11,6.44,8.99,12.5,14.53,18.05.3.3.59.55.81.81,1.66,1.66,3.4,3.22,5.18,4.73-3.92,15.46-5.88,31.44-5.88,47.56,0,23.74,4.22,46.82,12.46,68.53l-5.03,4.88-.11.11s-.07.07-.07.11c-.04.04-.07.07-.07.11-.11.11-.15.22-.26.41,0,.04-.07.07-.11.11-.04.15-.07.26-.07.37-.04.11-.04.15-.04.26v.04c0,.11.04.18.04.3,0,.07,0,.18.04.3.04.19.11.3.19.48,0,.07.07.07.07.11.04.07.07.11.11.15,0,.04.04.07.07.11.07.04.11.11.22.15.07.11.15.18.26.26h.04c.15.07.3.15.48.18.04.04.07.04.11.04h.04l8.14,1.52.63,1.48c1.07,2.4,2.26,4.73,3.4,7.1.41.78.81,1.59,1.22,2.4.07.18.19.33.26.44.19.37.41.7.59,1.04.41.81.81,1.59,1.26,2.37.04.04.04.15.07.18.04.04.07.07.07.11.11.18.22.37.3.59.22.33.44.74.67,1.15.04.07.11.19.19.3.67,1.18,1.33,2.33,2,3.48.11.18.26.37.33.52.15.26.26.44.41.67.19.26.37.63.55.89.7,1.22,1.44,2.37,2.18,3.51.07.07.15.22.22.33.59.92,1.26,1.85,1.85,2.81.67.92,1.33,1.92,2.03,2.92.41.59.85,1.18,1.29,1.81.07.11.15.26.22.33,0,0,0,.04.04.04.3.44.63.89.96,1.33.11.18.26.33.37.55.04.04.07.07.07.11.89,1.18,1.81,2.4,2.74,3.59,6.88,8.91,14.61,17.2,22.97,24.82h.04c4.22,3.81,8.62,7.43,13.13,10.87.15.11.3.26.48.37,10.28,7.77,21.34,14.53,32.95,20.12t.04.04l.19.04h.04s.04.04.07.04c1.15.55,2.37,1.15,3.62,1.7,1.07.48,2.11.96,3.18,1.41.22.11.48.22.7.33h.04l.7.3h.04c.48.22.96.41,1.44.63.11.04.22.07.33.11.56.22,1.07.48,1.63.67.89.37,1.81.7,2.7,1.07.41.11.81.3,1.22.48h.04l.92.33c.81.3,1.66.59,2.44.85.07,0,.11.04.15.07.52.18,1.04.37,1.59.55.22.07.48.15.7.22.81.3,1.66.55,2.55.85l.04.04h.04l.92.3,4.77,1.44c.78.26,1.52.44,2.29.63.48.15.96.3,1.41.41h.04c1.22.33,2.44.63,3.66.96,1.63.41,3.22.74,4.81,1.11.89.22,1.81.41,2.74.55,1.37.3,2.74.55,4.11.81.33.04.67.11.96.18.11,0,.19,0,.3.04.74.11,1.48.26,2.18.37.3.07.59.07.85.11.52.07,1.04.15,1.55.26.37.04.74.11,1.11.15,2.03.33,4.22.55,6.69.85.89.07,1.81.18,2.66.3h.19c.26.04.55.04.78.07,2.14.18,4.22.33,6.36.44,1.44.11,2.85.18,4.25.22.89.04,1.74.04,2.63.04,1.44.04,2.85.07,4.29.07,26.96,0,53.33-5.58,77.7-16.24,9.5-4.14,18.68-9.02,27.48-14.68,1.11-.74,2.18-1.48,3.25-2.22.52-.33,1.04-.7,1.55-1.04,7.62-5.29,14.87-11.09,21.71-17.38,13.54-12.54,25.33-26.96,34.76-42.64,3.37-5.66,6.47-11.43,9.25-17.35,12.06-25.7,18.38-53.88,18.38-82.58,0-3.92-.11-7.77-.33-11.39Zm-3.99,4.7h-3.37c1.07-.48,2.18-.96,3.29-1.44.04.48.04.96.07,1.44Zm-.41-8.88c-.04.18-.11.33-.07.48.07.85.07,1.74.15,2.55-.74.3-1.48.63-2.18.96h-43.75c1.48-1.52,3-2.92,4.51-4.29h41.31c0,.11.04.22.04.3Zm-81.7,146.42c-.85,1.44-1.78,2.88-2.74,4.29h-14.5c-.07.18-.19.37-.26.59h14.35c-1,1.48-2.03,2.92-3.07,4.29l-.04.04h-13.13c-.11.15-.18.37-.26.55h12.98c-.15.18-.33.37-.44.55-1,1.29-2,2.55-3,3.77h-11.69c-.07.18-.18.37-.3.55h11.5l-.3.37c-1.15,1.37-2.33,2.66-3.59,3.96h-10.02c-.11.19-.22.37-.37.55h9.87c-.26.26-.48.52-.7.78t-.11.07c-1.18,1.18-2.37,2.37-3.59,3.48h-8.17c-.11.18-.26.41-.37.59h7.92c-1.63,1.48-3.33,2.96-5.03,4.29h-5.95c-.15.18-.3.41-.44.59h5.66c-1.96,1.52-3.92,2.96-5.95,4.29h-3.11c-.11.22-.3.41-.44.59h2.66c-1.89,1.22-3.81,2.37-5.73,3.48-6.29,3.48-12.98,6.32-20.08,8.51-6.25,1.89-12.8,3.29-19.71,4.18-5.25.63-10.47.92-15.64.96-28.44.3-55.44-7.58-74.3-14.9l-2.14-.81c-.07-.07-.11-.07-.19-.07-.19-.07-.37-.15-.52-.18-2.11-.85-4.22-1.55-6.32-2.29-.37-.11-.7-.22-1.03-.33-2-.67-3.96-1.29-5.92-1.92,2.11.37,4.25.78,6.4,1.22.11,0,.19.04.3.04,2.22.44,4.4.96,6.62,1.48.11,0,.22.04.44.07l2.4.55c14.57,3.62,33.54,6.99,53.92,6.99,12.72,0,26-1.33,39.09-4.66,1.92-.52,3.85-1.04,5.73-1.63,22.6-6.99,40.94-19.56,54.51-37.61h.04v-.04c.15-.22.3-.41.44-.59.3-.41.56-.81.85-1.22.11-.11.15-.22.26-.3h16.09c-.81,1.44-1.63,2.88-2.51,4.25v.04h-15.64c-.11.18-.19.37-.22.59h15.5Zm-128.67-12.57c-3.29-.63-6.58-1.15-9.91-1.55-.48-.07-.96-.15-1.44-.22-5.73-.67-11.46-1.04-17.12-1.04-.07,0-.19-.04-.3-.04-5.18,0-10.32.3-15.42.81v-2.26h88.76v4.29h-44.56Zm44.56.59v4.29h-9.73c-1.78-.11-3.62-.26-5.47-.44-.41-.04-.81-.07-1.18-.11-7.73-.74-16.09-1.96-25.11-3.74h41.5Zm18.42-91.57c.89.59,1.81,1.15,2.81,1.63.26.11.48.26.74.37.41.18.78.37,1.15.52.37.11.74.3,1.07.41.37.11.7.22,1.04.37.44.11.89.22,1.33.33.3.11.59.18.89.26.52.11,1.04.18,1.59.26.22.04.44.11.7.15h-16.83c.11-.15.22-.3.33-.44.37-.52.7-1,1-1.48.26-.44.52-.81.74-1.22.22-.37.41-.78.63-1.15h2.81Zm-2.51-.59c.11-.33.3-.63.41-.96.41.33.81.63,1.26.96h-1.66Zm123.19-87.43l-.04,4.29h-61.27c-.65-1.12-1.16-1.85-1.16-1.85-.26-.44-.55-.89-.85-1.29-.04-.07-.07-.15-.15-.26-.04-.07-.07-.11-.15-.15-.19-.26-.37-.52-.52-.74h64.13Zm-64.65-.63c-.11-.18-.26-.3-.37-.44-1.18-1.37-2.52-2.66-3.92-3.74-.07,0-.11-.04-.15-.07h69.12l-.04,4.25h-64.65Zm64.61,5.51v4.29h-59.03c-.16-.45-.46-1.24-.96-2.38-.31-.69-.64-1.33-.96-1.91h60.94Zm0,4.88l-.04,4.33h-52.28c-.24-.23-.48-.45-.76-.67-.37-.33-.74-.67-1.15-.92-.33-.3-.7-.55-1.07-.78-.22-.15-.41-.26-.63-.41-.44-.26-.85-.52-1.33-.78-.07-.04-.11-.07-.15-.07l-1.22-.7h58.62Zm-25.7,4.88h25.67v4.33h-48.1c-.3-.46-.6-.89-.94-1.33-.11-.18-.26-.33-.41-.55-.33-.41-.67-.78-1-1.18-.19-.18-.41-.41-.56-.63-.22-.22-.45-.42-.67-.63h26.01Zm0,4.88h25.67l-.04,4.33h-45.57c-.3-.79-.63-1.56-1.03-2.29-.11-.3-.26-.59-.41-.85-.22-.41-.44-.78-.67-1.15,0-.01-.02-.02-.02-.04h22.07Zm7.01,23.89h-27.58c.23-.51.44-1.04.63-1.55.07-.15.11-.3.19-.41.23-.8.49-1.57.7-2.37h31.01c-1.68,1.41-3.33,2.85-4.96,4.33Zm5.68-4.92h-31.59c.18-.81.31-1.63.41-2.44.04-.15.04-.3.07-.48.04-.44.07-.92.11-1.37h36.36c-1.81,1.4-3.61,2.82-5.36,4.29Zm7.88-6.21s-.12.09-.32.23c-.48.36-.95.73-1.43,1.1h-37.13c.07-1.41,0-2.85-.22-4.22,0-.02,0-.05,0-.07h43.76c-.85.48-1.74,1.04-2.59,1.63-.7.41-1.37.89-2.07,1.33Zm-.26-3.55h-38.92c-.05-.36-.11-.71-.21-1.04-.11-.59-.22-1.15-.41-1.7-.14-.53-.32-1.06-.49-1.59h45.36v4.33h-5.33Zm-42.35,17.46c.26-.44.52-.89.74-1.33.15-.26.26-.44.37-.67.03-.06.06-.12.09-.18h27.22c-1.02.93-2.04,1.87-3.05,2.83l-1.53,1.46h-25.31c.18-.24.38-.46.55-.7.07-.07.15-.18.19-.26.26-.37.52-.74.74-1.15Zm9.14,11.87h-13.94v-1c0-.41,0-.81-.04-1.26l-.13-2.03h23.8s-.04.07-.07.07c-.41.52-.85,1-1.26,1.52-.7.89-1.44,1.78-2.11,2.7h-6.25Zm5.77.59c-.3.44-.63.89-.96,1.33-.7.96-1.41,1.96-2.14,3h-17.16c.26-1.41.44-2.85.52-4.33h19.75Zm-19.92-5.47l-.06-.85.67-.77c.92-.81,1.72-1.72,2.47-2.66h25.09l-1.12,1.18c-.89,1-1.81,2.03-2.7,3.11h-24.36Zm-.79,11.61s.04-.07.04-.11c.07-.37.18-.74.26-1.11h16.94c-.19.26-.37.52-.55.78l-.15.22-.11.15c-.22.37-.41.67-.59.96-.48.7-.92,1.44-1.41,2.18h-15.42c0-.07.04-.11.04-.15.04-.04.04-.07.07-.11.33-.89.63-1.85.89-2.81Zm14.05,3.66c-.85,1.41-1.7,2.85-2.51,4.29h-15.01c.85-1.37,1.63-2.81,2.22-4.29h15.31Zm-2.85,4.88c-.81,1.41-1.59,2.85-2.37,4.29h-16.16c.55-.59,1.11-1.22,1.63-1.85.11-.15.22-.26.33-.41.55-.67,1.04-1.33,1.52-2.03h15.05Zm-2.66,4.88c-.74,1.41-1.44,2.85-2.15,4.33h-20.12c1.52-.89,2.96-1.89,4.33-3,.52-.44,1-.85,1.48-1.33h16.46Zm-2.44,4.88c-.63,1.41-1.29,2.85-1.92,4.33h-23.3v-2.51c1.52-.48,2.96-1.07,4.33-1.81h20.9Zm-8.58,34.51c.44-1.41.89-2.85,1.33-4.29h15.64c-.7,1.44-1.41,2.85-2.07,4.29h-14.9Zm14.64.59c-.67,1.44-1.33,2.85-1.92,4.29h-14.24c.44-1.41.89-2.85,1.33-4.29h14.83Zm-13.13-5.47c.48-1.44.96-2.85,1.44-4.29h16.49c-.33.55-.63,1.15-.92,1.74-.44.85-.89,1.7-1.26,2.55h-15.76Zm1.63-4.88c.52-1.44,1-2.88,1.55-4.33h17.38c-.78,1.41-1.55,2.85-2.33,4.33h-16.61Zm1.74-4.88c.52-1.44,1.03-2.88,1.59-4.33h18.49c-.85,1.41-1.7,2.85-2.55,4.33h-17.53Zm1.81-4.92c.22-.55.44-1.15.67-1.7.37-.85.7-1.74,1.07-2.59h19.64c-.92,1.37-1.85,2.81-2.74,4.29h-18.64Zm-.33-10.02c-.44,1.07-.92,2.15-1.41,3.29-.15.33-.26.67-.41,1h-21.19v-4.29h23Zm-2.03,4.88c-.63,1.44-1.18,2.88-1.7,4.29h-19.27v-4.29h20.97Zm-1.92,4.88c-.56,1.44-1.11,2.88-1.63,4.29h-17.42v-4.29h19.05Zm-1.81,4.92c-.41,1.11-.81,2.18-1.18,3.29-.07.33-.22.67-.3.96h-15.75v-4.25h17.23Zm-1.7,4.88c-.48,1.44-.96,2.85-1.41,4.29h-14.13v-4.29h15.53Zm-1.63,4.88c-.44,1.44-.89,2.85-1.33,4.29h-12.57v-4.29h13.91Zm-1.52,4.88c-.44,1.44-.89,2.88-1.29,4.33h-11.09v-4.33h12.39Zm-1.44,4.88c-.48,1.44-.89,2.88-1.29,4.33h-9.65v-4.33h10.95Zm-1.48,4.88c-.3,1-.56,1.96-.85,2.88-.15.48-.3.96-.44,1.44h-8.17v-4.33h9.47Zm-1.44,4.92c-.44,1.44-.85,2.88-1.29,4.29h-6.73v-4.29h8.03Zm-1.44,4.88c-.19.59-.37,1.15-.55,1.78-.19.59-.37,1.22-.56,1.81-.07.22-.15.48-.22.7h-5.25v-4.29h6.58Zm-1.52,4.88c-.44,1.48-.92,2.88-1.44,4.29v.04h-3.62v-4.33h5.07Zm-1.66,4.92c-.07.22-.18.48-.26.74-.22.59-.48,1.22-.7,1.85-.22.59-.44,1.15-.7,1.7h-1.74v-4.29h3.4Zm-1.89,4.88c-.33.85-.7,1.7-1.04,2.52-.15.33-.33.67-.48,1v-3.51h1.52Zm.22,9.62c.3-.59.59-1.22.92-1.85.59-1.29,1.18-2.63,1.74-3.99.26-.52.52-1.07.74-1.63,1.59-3.88,3.03-7.88,4.29-12.06.44-1.37.85-2.81,1.29-4.25.19-.59.37-1.22.56-1.89.44-1.44.85-2.88,1.29-4.36.78-2.63,1.55-5.33,2.37-7.99v-.11h14.16c-.41.89-.78,1.78-1.15,2.66-.26.55-.48,1.11-.7,1.66h-13.06c0,.18-.04.37-.07.55h12.91c-.63,1.44-1.22,2.88-1.77,4.33h-11.8c-.04.18-.04.41-.11.59h11.65c-.59,1.44-1.15,2.85-1.7,4.29h-10.54c0,.22-.04.41-.07.59h10.39c-.59,1.44-1.15,2.88-1.7,4.29h-9.25c-.04.22-.07.41-.07.59h9.1c-.55,1.44-1.11,2.88-1.66,4.29h-7.99c-.04.22-.07.44-.07.63h7.84v.07c-.55,1.41-1.07,2.85-1.63,4.22h-6.77c-.04.22-.07.41-.07.59h6.62c-.55,1.44-1.11,2.88-1.66,4.29h-5.55c0,.18-.04.41-.07.59h5.4c-.07.18-.19.44-.26.63v.04c-.48,1.22-.96,2.44-1.52,3.62h-4.25c-.04.22-.07.41-.11.59h4.1c-.63,1.48-1.26,2.92-1.96,4.33h-2.85c0,.18-.04.37-.07.55h2.66c-.7,1.48-1.44,2.92-2.18,4.33h-1.29c-.04.18-.07.41-.15.55h1.11c-.56,1.15-1.18,2.22-1.78,3.29-.89,1.48-1.78,2.92-2.66,4.36-.07.04-.15.18-.22.3-.04.04-.04.11-.07.18l-.22.3c-.81,1.26-1.7,2.48-2.59,3.77-.52.67-.96,1.33-1.52,2.07v.04s0,.04-.04.07c-5.07,6.69-10.8,12.57-17.16,17.68-11.54,9.28-25.22,15.98-40.87,20.04-33.14,8.47-67.64,3.44-90.87-2.29,4.81.7,9.99,1.33,15.5,1.78.22,0,.44,0,.7.04,2.22.22,4.55.33,6.92.44,10.8.52,22.49.3,34.39-1.18,2.11-.26,4.25-.55,6.36-.89,2.29-.41,4.55-.85,6.84-1.29,2.07-.44,4.11-.89,6.18-1.41,3.62-.92,7.25-2,10.87-3.22,1.37-.48,2.74-.96,4.07-1.48.96-.37,1.92-.74,2.85-1.18.52-.15,1.04-.37,1.52-.59.89-.37,1.81-.78,2.74-1.18.33-.15.63-.33.96-.48,1.04-.44,2.03-.96,3.03-1.48.41-.15.74-.3,1.07-.48.85-.44,1.66-.85,2.44-1.33.41-.18.85-.41,1.26-.7,1.04-.55,2.03-1.11,3.03-1.7,1.15-.74,2.33-1.48,3.44-2.22,1.15-.74,2.29-1.48,3.37-2.26,2.22-1.55,4.33-3.22,6.4-4.96,1-.85,2.03-1.74,3.03-2.63.96-.85,1.96-1.81,2.92-2.74.96-.96,1.89-1.92,2.81-2.88.89-.96,1.78-1.89,2.63-2.88.04-.07.07-.11.15-.15.81-.96,1.63-1.96,2.44-2.96.04-.04.11-.07.15-.18.81-1,1.63-2.03,2.4-3.07v-.04c.44-.55.85-1.11,1.26-1.7v-.04c.41-.52.78-1.04,1.15-1.59.67-.96,1.29-1.92,1.96-2.92v-.04s0-.04.04-.04c.15-.22.26-.44.41-.74.81-1.22,1.55-2.48,2.29-3.74.37-.63.74-1.29,1.07-1.92l.44-.85c.07-.11.11-.18.15-.3.63-1.11,1.15-2.26,1.74-3.4Zm-62.58-40.31l4.25,4.29v.04h-31.36l-.04-.04-15.64-4.29h42.79Zm-44.9-.59l-15.64-4.29h55.73l4.25,4.29h-44.34Zm47.19-2.96h54.44v4.33h-50.19l-4.25-4.33Zm-.56-.59l-4.25-4.29h59.25v4.29h-54.99Zm-4.81-4.88l-4.25-4.29h64.06v4.29h-59.8Zm-2.29,3.55h-57.29l-15.64-4.29h68.68l4.25,4.29Zm-72.82,0h-16.12v-4.29h.52l15.61,4.29Zm2.11.59l15.64,4.29h-33.88v-4.29h18.23Zm17.71,4.88l15.64,4.29v.04h-51.59v-4.33h35.95Zm17.75,4.88l15.61,4.33h-69.31v-4.33h53.7Zm17.71,4.88l15.64,4.33h-87.06v-4.33h71.41Zm-2.14-4.88h29.85l4.25,4.33h-18.46l-15.64-4.33Zm32.18-3.55h49.59v4.33h-45.38l-4.22-4.33Zm49.59,4.88v4.33h-40.57l-4.22-4.33h44.79Zm-33.47,16.01c.26-.07.52-.18.74-.37.04-.04.11-.07.15-.11.15-.11.3-.26.37-.48.11-.11.15-.22.19-.37h32.03v4.33h-44.12l.04-.04,10.61-2.96Zm-7.91-6.21h.41l.19.15-.59-.15Zm9.5,4.29v-.11c0-.11-.04-.22-.04-.37v-.18s-.11-.11-.11-.18c-.04-.07-.11-.22-.15-.3-.07-.11-.15-.22-.26-.33,0-.04,0-.07-.04-.07l-2.7-2.74h35.17v4.29h-31.88Zm-3.88-4.88l-4.22-4.29h39.98v4.29h-35.76Zm-5.77,0h-1.96l-2.77-.78h3.99l.74.78Zm-.11,4.81l-.3.07h-16.2v-4.29h1.18l15.31,4.22Zm-2.37.67l-14.13,3.99v-3.99h14.13Zm-13.72,8.06c.19,0,.41-.04.55-.07l10.95-3.07h46.23v4.29h-58.14v-1.22c.15.04.26.07.41.07Zm57.73,1.74v4.29h-58.14v-4.29h58.14Zm0,4.88v4.33h-58.14v-4.33h58.14Zm0,4.88v2.26h-.04l-.07.19c-.33.59-.7,1.22-1.07,1.89h-56.95v-4.33h58.14Zm-1.52,4.88c-.7,1.22-1.44,2.44-2.18,3.62-.04,0-.04.07-.04.11t-.07.04c-.11.18-.22.37-.37.55h-53.96v-4.33h56.62Zm-3.03,4.92c-.33.52-.67,1-1.04,1.52-.55.85-1.15,1.74-1.81,2.55,0,.04,0,.07-.04.07-.07.04-.19.11-.3.15h-50.41v-4.29h53.59Zm4.55-83.73h-14.39c.63-.52,1.26-1.07,1.81-1.63.11-.11.15-.22.22-.33h.15c1.15.33,2.29.52,3.44.7h.15c1.18.15,2.4.22,3.55.22,1.7,0,3.4-.15,5.07-.44v1.48Zm0,.59v4.29h-25.81c3.51-.48,6.8-1.74,9.69-3.62.37-.22.7-.44,1-.67h15.13Zm-26.22.15c-.26.07-.55.07-.81.11-.37.04-.7.07-1.11.11h-1.92c-1.11-.04-2.22-.18-3.29-.37h8.14c-.33.04-.67.11-1,.15Zm26.22,4.73v4.29h-54.18c.19-.15.37-.3.56-.44.55-.44,1.07-.96,1.59-1.44.11-.07.18-.15.3-.26t.07-.07c.63-.67,1.26-1.37,1.81-2.07h49.85Zm0,4.88v4.29h-63.98c.11,0,.22-.04.3-.07.52-.15.96-.26,1.48-.44.3-.11.63-.22.89-.33.48-.15.92-.37,1.37-.55.33-.15.67-.3,1-.44.37-.22.81-.44,1.18-.63.37-.22.7-.41,1.07-.67.37-.22.7-.41,1.07-.63.22-.18.41-.33.63-.52h54.99Zm0,4.92v4.25h-64.65l-3.99-4.03h.11c.52-.07,1.04-.15,1.55-.22h66.98Zm-66.9,7.84h-70.19l-15.31-4.22-.3-.11h81.55l4.25,4.33Zm-84.14,63.57v-4.33h88.76v4.33h-88.76Zm0-4.88v-4.33h88.76v4.33h-88.76Zm0-4.88v-4.33h88.76v4.33h-88.76Zm0-4.88v-4.33h88.76v4.33h-88.76Zm0-4.92v-4.29h88.76v4.29h-88.76Zm0-4.88v-4.33h88.76v4.33h-88.76Zm0-4.92v-4.29h88.76v4.29h-88.76Zm0-4.88v-4.33h88.76v4.33h-88.76Zm87.02-9.21h16.94l4.25,4.33h-5.55l-15.64-4.33Zm5.88,50.26h31.32l3.92-.59h-35.25v-4.29h49.19c-.22.11-.44.18-.7.3-.63.3-1.33.59-2.22.92-.04,0-.11,0-.19.04-.52.22-1.04.41-1.55.59-2.4.89-4.99,1.66-7.69,2.33-.59.18-1.18.37-1.81.48-5.77,1.41-13.09,2.66-22.01,3.29-.22.04-.44.04-.63.07-2.96.18-6.1.3-9.43.33-.96.04-2,0-2.96,0v-3.48Zm32.06,12.98c.37-.22.74-.48,1.11-.74.07-.04.19-.07.26-.15.37-.26.78-.52,1.15-.81,0,0,.04,0,.07-.07,1.15-.78,2.18-1.55,3.11-2.33-.81.78-1.63,1.52-2.48,2.22-.44.41-.85.74-1.33,1.11-.78.67-1.59,1.29-2.37,1.92-.41.3-.81.63-1.22.92-.63.48-1.26.92-1.92,1.37-.37.33-.78.59-1.18.89-.19.15-.37.26-.59.41-.78.52-1.55,1.04-2.37,1.59-.3.18-.52.33-.78.48-1.07.67-2.14,1.33-3.25,2-.04.04-.07.04-.11.07-1.26.7-2.51,1.41-3.81,2.07-.07.07-.11.07-.15.11-1.33.63-2.63,1.33-3.96,1.96-1.29.63-2.59,1.22-3.88,1.78-.22.11-.48.22-.74.33-1.11.44-2.22.89-3.37,1.33-.37.15-.7.26-1.07.37-1.22.48-2.48.96-3.73,1.41-32.4,11.06-67.31,8.73-90.91,4.77l-2.33-.37c-.26-.07-.52-.11-.67-.11-2-.3-3.99-.55-5.95-.81-1.52-.22-3-.37-4.47-.52,3.51-1.41,7.06-2.66,10.61-3.7,12.87-3.92,26.22-3.22,41.72-2.33l1.37.11c3.92.22,7.66.33,11.28.37h.07c1.74.04,3.4.04,5.03.04h.56c1.52-.04,2.96-.07,4.4-.11h.67c1.44-.04,2.81-.07,4.18-.18.18,0,.37-.04.55-.04,1.48-.04,2.88-.15,4.29-.22.07-.04.15-.04.19-.04,4.51-.33,8.69-.81,12.61-1.41.04,0,.11,0,.19-.04,1.15-.15,2.33-.41,3.48-.55.19-.04.37-.07.56-.11,1-.18,1.96-.41,2.96-.59.22-.04.44-.07.67-.15.92-.15,1.81-.37,2.7-.59.22-.04.44-.07.63-.11.92-.22,1.85-.44,2.7-.67.15-.07.3-.11.44-.15,1-.26,1.96-.55,2.88-.78.04-.04.07-.04.11-.04,2.92-.89,5.62-1.85,8.1-2.81.15-.04.3-.11.44-.19.67-.22,1.29-.52,1.89-.74.22-.11.41-.22.59-.3.56-.18,1.11-.48,1.63-.7.22-.07.41-.18.63-.26.48-.26.96-.48,1.44-.7.19-.11.44-.22.63-.33.44-.22.89-.44,1.29-.67.22-.11.41-.22.63-.33.41-.22.81-.44,1.22-.67.19-.11.37-.26.56-.33.44-.26.81-.48,1.22-.74.48-.3.96-.59,1.44-.89.15-.07.26-.15.41-.26Zm35.1-7.84c.81-1.15,1.59-2.26,2.33-3.37.07-.11.19-.3.3-.44l.22-.37c0-.07.04-.07.04-.11h15.5c-.74,1.37-1.48,2.7-2.22,4.03-.04.07-.07.19-.11.26h-16.05Zm3.25-4.88c.89-1.37,1.78-2.81,2.63-4.29h15.09c-.52,1-1.04,1.96-1.55,2.92-.26.48-.48.92-.74,1.37h-15.42Zm2.96-4.88c.07-.11.11-.26.22-.37.7-1.29,1.41-2.63,2.11-3.96h15.09c-.74,1.41-1.48,2.77-2.22,4.14-.04.07-.07.11-.11.19h-15.09Zm2.59-4.88c.74-1.41,1.44-2.85,2.11-4.33h15.39c-.81,1.44-1.59,2.88-2.37,4.33h-15.13Zm2.37-4.88c.7-1.44,1.33-2.85,1.89-4.33h15.94c-.81,1.44-1.63,2.88-2.37,4.33h-15.46Zm2.15-4.92c.3-.7.59-1.41.89-2.11.26-.74.56-1.44.85-2.18h16.72c-.85,1.44-1.66,2.85-2.44,4.29h-16.01Zm1.92-4.88c.3-.63.52-1.29.78-1.96.07-.22.15-.37.26-.59.22-.59.44-1.15.67-1.74h17.75c-.89,1.44-1.78,2.85-2.55,4.29h-16.9Zm1.92-4.88c.33-.89.7-1.85,1.04-2.74.19-.52.41-1.04.59-1.55h18.9c-.92,1.41-1.81,2.85-2.66,4.29h-17.86Zm1.85-4.92c.56-1.41,1.07-2.81,1.66-4.29h20.19c-.96,1.44-1.89,2.85-2.81,4.29h-19.05Zm1.89-4.88c.18-.48.37-.92.55-1.41.37-.96.74-1.92,1.11-2.88h21.67c-.74,1.07-1.48,2.11-2.22,3.22-.26.37-.52.7-.74,1.07h-20.38Zm1.89-4.88c.59-1.41,1.15-2.85,1.78-4.29h23.34c-1.07,1.37-2.14,2.81-3.22,4.29h-21.89Zm2-4.88c.59-1.44,1.18-2.88,1.81-4.33h25.22c-1.18,1.41-2.33,2.85-3.48,4.33h-23.56Zm2.03-4.88c.59-1.44,1.22-2.88,1.85-4.33h27.37c-1.26,1.41-2.52,2.81-3.74,4.33h-25.48Zm2.14-4.92c.11-.26.22-.52.33-.78.52-1.18,1.07-2.37,1.63-3.51h29.81c-.15.11-.3.26-.44.37-1.22,1.29-2.51,2.59-3.7,3.92h-27.63Zm2.26-4.88c.67-1.44,1.37-2.88,2.07-4.29h32.62c-.74.63-1.48,1.29-2.22,2.03-.74.7-1.48,1.37-2.26,2.11l-.15.15h-30.07Zm2.37-4.88c.11-.22.22-.44.33-.67.67-1.26,1.29-2.48,1.92-3.62h35.95c-.67.52-1.37,1.04-2.03,1.63l-.22.11c-.26.26-.55.48-.81.74-.11.07-.22.15-.33.22-.48.44-1,.89-1.48,1.33-.11.07-.22.15-.33.26h-32.99Zm2.59-4.88c.07-.11.15-.26.18-.41.74-1.33,1.48-2.63,2.22-3.92h40.02c-2.07,1.37-4.07,2.81-6.03,4.33h-36.39Zm2.74-4.88c.85-1.52,1.74-2.92,2.63-4.33h44.97c-.15.07-.3.15-.41.22-.07.04-.11.07-.19.15-2.22,1.22-4.36,2.55-6.47,3.96h-40.53Zm1.29-9.8h-19.82c.04-.07.07-.18.11-.26.52-1.22,1.07-2.37,1.55-3.55.07-.18.15-.33.22-.48h20.9c-1,1.41-2,2.81-2.96,4.29Zm-17.64-4.88c.63-1.48,1.33-2.92,1.96-4.33h22.38c-.11.15-.26.3-.37.44l-.22.3-.04.04c-.22.33-.48.63-.7.92-.67.89-1.33,1.74-1.96,2.63h-21.04Zm2.26-4.92c.74-1.44,1.44-2.88,2.18-4.29h23.96c-.74.85-1.52,1.78-2.33,2.77-.44.52-.85,1-1.29,1.52h-22.52Zm2.52-4.88c.74-1.44,1.55-2.88,2.37-4.29h25.85c-.59.59-1.18,1.18-1.74,1.78-.78.78-1.52,1.63-2.33,2.51h-24.15Zm2.7-4.88c.74-1.26,1.48-2.48,2.26-3.7.11-.18.22-.41.33-.59h28.07c-.67.55-1.29,1.15-1.92,1.7-.89.85-1.78,1.74-2.66,2.59h-26.07Zm2.96-4.88c.15-.26.33-.55.52-.85.07-.11.15-.19.22-.3.11-.18.22-.33.3-.52l.19-.26.11-.11c.18-.37.41-.63.63-.96.3-.44.59-.89.89-1.33h30.66c-1.78,1.41-3.48,2.85-5.14,4.33h-28.37Zm3.29-4.88c.18-.3.37-.59.59-.85.85-1.22,1.74-2.37,2.63-3.48h33.73c-1.59,1.07-3.18,2.22-4.73,3.37-.41.3-.81.63-1.26.96h-30.95Zm3.66-4.88c.26-.33.48-.67.78-1,.41-.52.81-1,1.26-1.52.52-.63,1-1.22,1.55-1.81h37.69c-.07.04-.11.07-.19.11-.48.26-.92.55-1.41.81-1.66.96-3.33,1.96-4.96,3-.19.11-.41.26-.59.41h-34.14Zm4.07-4.92c.52-.59,1.11-1.18,1.63-1.78.78-.89,1.59-1.7,2.4-2.51h42.94c-3,1.33-5.88,2.74-8.65,4.29h-38.31Zm50.37-9.8h-40.53c1.7-1.48,3.44-2.92,5.25-4.25h34.84c.19,1.78.33,3.25.44,4.25Zm-.55-4.88h-33.95c.52-.44,1.07-.81,1.63-1.22,0,0,.04,0,.04-.04,1.41-1.04,2.85-2.03,4.36-3.03h27.37c.22,1.55.41,2.96.55,4.29Zm-3.96-16.53c.3-.15.59-.26.89-.37.22.7.41,1.48.59,2.26h-6.07c1.52-.67,3.03-1.29,4.59-1.89Zm-5.88,2.44h7.51c.15.7.3,1.44.44,2.18.15.7.3,1.41.41,2.14h-17.2c2.81-1.52,5.77-3,8.84-4.33Zm-9.95,4.92h18.42c.26,1.44.48,2.88.7,4.29h-26.33c1.26-.85,2.59-1.7,3.92-2.44,1.07-.67,2.18-1.26,3.29-1.85Zm-17.79-89.46l-11.35-3c-.63-.15-1.29,0-1.78.37-.52.37-.81,1-.81,1.63v1h-12.5v-4.33h38.28l-.04,4.33h-11.8Zm2,4.77v41.42l-6.73-1.63-2.4-.55-2.66-.63v-41.72l11.8,3.11Zm-37.13-13.98h46.97v4.29h-38.28v-.41c0-.96-.67-1.78-1.55-2.03l-7.14-1.85Zm4.55,5.44v42.16l-14.87-3.59-1.81-.44v-42.46l12.32,3.18,2.22.59,2.14.55Zm4.14,38.57h12.5v4.33h-12.5v-4.33Zm0-.59v-4.29h12.5v4.29h-12.5Zm0-4.88v-4.29h12.5v4.29h-12.5Zm0-4.88v-4.33h12.5v4.33h-12.5Zm0-4.88v-4.33h12.5v4.33h-12.5Zm0-4.92v-4.29h12.5v4.29h-12.5Zm0-4.88v-4.29h12.5v4.29h-12.5Zm0-4.88v-4.33h12.5v4.33h-12.5Zm38.24-4.33v4.33h-5.69v-1.7c0-.92-.63-1.78-1.52-2l-2.37-.63h9.58Zm-5.69,38.57v-4.33h5.55l-.04,4.33h-5.51Zm5.51.55v4.33h-5.51v-4.33h5.51Zm-5.51-5.47v-4.29h5.55v4.29h-5.55Zm0-4.88v-4.29h5.58v4.29h-5.58Zm0-4.88v-4.33h5.58v4.33h-5.58Zm0-4.88v-4.33h5.66l-.04,4.33h-5.62Zm0-4.92v-4.29h5.66v4.29h-5.66Zm0-4.88v-4.29h5.69l-.04,4.29h-5.66Zm0,39.05v-4.25h5.51l-.04,4.33h-5.47v-.07Zm-49.26-131.37h55.33l-.04,4.29h-42.72l-12.57-4.29Zm12.57,8.65v38.46l-9.95-3.11-1.89-.59-4.85-1.55v-38.91l3.92,1.33,1.7.59,11.06,3.77Zm42.72-3.77v4.29h-38.57v-1.96c0-.89-.59-1.66-1.41-1.96l-1.07-.37h41.05Zm-38.57,39.13h12.5v4.29h-12.5v-4.29Zm0-.59v-4.33h12.5v4.33h-12.5Zm0-4.92v-4.29h12.5v4.29h-12.5Zm0-4.88v-4.29h12.5v4.29h-12.5Zm0-4.88v-4.33h12.5v4.33h-12.5Zm0-4.88v-4.33h12.5v4.33h-12.5Zm0-4.88v-4.33h12.5v4.33h-12.5Zm0-4.92v-4.29h38.57l-.04,4.29h-14.24l-9.06-3.07c-.63-.26-1.33-.15-1.85.26-.55.41-.89,1-.89,1.66v1.15h-12.5Zm16.64,1.74l9.21,3.18,1.7.55.89.33v37.58l-11.54-3.66-.26-.07v-37.91Zm9.36-1.15h12.54l-.04,4.33h-5.92v-.59c0-.85-.56-1.66-1.41-1.96l-5.18-1.78Zm6.58,33.65v-4.29h5.84l-.04,3.25v1.04h-5.81Zm5.81.59v1.41l-.04,2.88h-5.77v-4.29h5.81Zm-5.81-5.47v-4.33h5.84v4.33h-5.84Zm0-4.92v-4.29h5.88l-.04,4.29h-5.84Zm0-4.88v-4.29h5.88v4.29h-5.88Zm0-4.88v-4.33h5.92l-.04,4.33h-5.88Zm0-4.88v-4.33h5.92v4.33h-5.92Zm0,29.92h5.77v4.33h-5.77v-4.33Zm-15.94-102.7h.3l9.51,4.33,1.29.55.7.33v35.65l-4.44-1.74-1.48-.59-5.88-2.33v-36.21Zm-.52-4.88h22.74l-.04,4.29h-13.24l-9.47-4.29Zm10.76,4.88h11.95l-.04,4.33h-6.21v-.44c0-.81-.48-1.55-1.22-1.85l-4.47-2.03Zm5.7,33.65v-4.33h6.14l-.04,4.33h-6.1Zm6.07.59v4.29h-6.07v-4.29h6.07Zm-6.07-5.51v-4.29h6.14v4.29h-6.14Zm0-4.88v-4.29h6.18l-.04,4.29h-6.14Zm0-4.88v-4.29h6.18v4.29h-6.18Zm0-4.88v-4.29h6.21l-.04,4.29h-6.18Zm0-4.88v-4.33h6.21v4.33h-6.21Zm0,29.92h6.07v4.29h-6.07v-4.29Zm6.29-44.6h-38.87v-4.29h38.87v4.29Zm-38.87,29.33v-4.29h12.5v4.29h-12.5Zm12.5.59v4.29h-12.5v-4.29h12.5Zm-12.5-5.47v-4.29h12.5v4.29h-12.5Zm0-4.88v-4.29h12.5v4.29h-12.5Zm0-4.88v-4.33h12.5v4.33h-12.5Zm0-4.88v-4.33h12.5v4.33h-12.5Zm0-4.92v-4.29h13.28c-.48.33-.78.96-.78,1.55v2.74h-12.5Zm38.83-9.8h-38.83v-.44c0-.85-.48-1.55-1.22-1.89l-4.29-1.92h34.91l9.43,4.25Zm-42.98.85v37.46l-8.73-3.48-1.44-.59-6.51-2.55v-38.35l3.99,1.78,1.33.63,9.47,4.25,1.33.63.55.22Zm32.25-5.73h-34.91l-9.54-4.29h35.02l9.43,4.29Zm-62.83-28.66l9.32,4.22h-9.32v-4.22Zm0,4.81h10.58l9.47,4.33h-20.04v-4.33Zm0,4.88h21.3l9.43,4.33h-30.73v-4.33Zm0,4.92h31.99l9.43,4.29h-41.42v-4.29Zm0,4.88h42.72l9.43,4.29h-35.06l-4.36-1.96c-.67-.3-1.41-.26-1.96.15-.63.37-.96,1-.96,1.7v.11h-9.8v-4.29Zm0,4.88h9.8v4.29h-9.8v-4.29Zm0,4.92h9.8v4.25h-9.8v-4.25Zm0,4.88h9.8v4.29h-9.8v-4.29Zm0,4.88h9.8v4.29h-9.8v-4.29Zm0,4.88h9.8v4.33h-9.8v-4.33Zm0,4.88h9.8v4.33h-9.8v-4.33Zm0,4.92h9.8v4.29h-9.8v-4.29Zm0,4.88h9.8v4.29h-9.8v-4.29Zm0,4.88h9.8v3.14c0,.41.15.81.37,1.15h-10.17v-4.29Zm0,4.88h10.8c.11.07.19.11.3.15l10.47,4.14h-21.56v-4.29Zm0,4.88h23l8.88,3.51c.26.11.52.19.78.19.41,0,.81-.15,1.18-.37.55-.37.89-1,.89-1.7v-1.63h12.5v4.33h-47.23v-4.33Zm0,4.92h47.23v3.33c0,.33.07.67.26.96h-47.49v-4.29Zm0,4.88h47.93c.19.15.37.3.59.37l9.87,3.92h-58.4v-4.29Zm0,4.88h59.91l4.55,1.81c.26.11.52.15.78.15.41,0,.81-.11,1.15-.37.55-.37.89-.96.89-1.59h6.07v4.29h-57.1l-3.7-1.26c-.63-.22-1.33-.11-1.89.26-.33.26-.59.63-.74,1h-9.91v-4.29Zm0,4.92h9.8v4.29h-9.8v-4.29Zm0,4.88h9.8v4.29h-9.8v-4.29Zm0,4.88h9.8v4.29h-9.8v-4.29Zm0,4.88h9.8v4.33h-9.8v-4.33Zm0,4.88h9.8v4.33h-9.8v-4.33Zm0,4.88h9.8v4.33h-9.8v-4.33Zm0,4.92h9.8v4.29h-9.8v-4.29Zm0,4.88h9.8v4.29h-9.8v-4.29Zm0,4.88h9.8v4.33h-9.8v-4.33Zm0,4.92h9.91c.19.59.67,1.11,1.33,1.33l9.39,2.96h-20.64v-4.29Zm0,4.88h22.52l9.5,3c.22.07.41.11.63.11.44,0,.85-.15,1.22-.37.52-.41.85-1.04.85-1.7v-1.04h12.5v4.29h-47.23v-4.29Zm0,4.88h47.23v1.44c0,.89.59,1.7,1.44,1.92l2.96.96h-51.63v-4.33Zm0,4.88h53.44l11.17,3.55c.22.04.41.11.63.11.44,0,.89-.15,1.22-.41.55-.37.85-1,.85-1.66v-1.59h5.77l-.04,4.33h-73.04v-4.33Zm0,4.92h73.04v4.29h-73.04v-4.29Zm0,4.88h73.04l-.04,4.29h-49.19l-11.43-2.96c-.63-.15-1.29-.04-1.78.33-.52.41-.81,1.04-.81,1.63v1h-9.8v-4.29Zm0,4.88h9.8v4.29h-9.8v-4.29Zm0,4.88h9.8v4.33h-9.8v-4.33Zm0,4.88h9.8v4.33h-9.8v-4.33Zm0,4.92h9.8v4.29h-9.8v-4.29Zm0,4.88h9.8v4.29h-9.8v-4.29Zm0,4.88h9.8v4.33h-9.8v-4.33Zm0,4.88h9.8v4.33h-9.8v-4.33Zm0,4.92h9.8v4.29h-9.8v-4.29Zm0,4.88h9.8v4.29h-9.8v-4.29Zm0,4.88h9.8v1.18c0,.96.63,1.78,1.55,2l4.7,1.15h-16.05v-4.33Zm0,4.88h18.49l13.68,3.29c.15.04.3.07.48.07.44,0,.89-.15,1.26-.48.52-.37.81-.96.81-1.59v-1.29h12.5v4.33h-47.23v-4.33Zm0,4.88h47.23v.44c0,.92.67,1.74,1.59,2l7.84,1.89h-56.66v-4.33Zm0,4.92h59.1l5.66,1.33c.15.04.33.04.44.04.48,0,.96-.11,1.29-.44.3-.26.55-.55.67-.92h5.58v4.29h-70.01s-.04,0-.07-.04c-.26-.15-.52-.37-.78-.52-.26-.15-.52-.33-.78-.44-.04-.04-.07-.04-.11-.07-.26-.11-.44-.26-.67-.37-.11-.04-.22-.07-.33-.15v-2.7Zm-2.48,6.07s.07.04.07.04c.07.07.19.07.26.15.59.3,1.18.59,1.81.96.37.26.78.52,1.15.78.15.11.33.22.48.33.26.22.55.44.81.67.07.04.15.15.22.18.3.26.59.52.85.81.15.11.3.26.44.41h-18.94c.04-.07.07-.11.07-.18.04,0,.07-.04.07-.07.07-.26.15-.52.15-.81,0-1.07-.07-2.22-.19-3.25h12.72Zm-1.41-.59h-11.39v-.22s-.04-.07-.04-.11h.04s.04-.04.07-.04c.04-.04.07-.04.15-.07.11-.04.22-.04.33-.07.19-.04.33-.07.52-.11h.04c.11,0,.19-.04.26-.07.18-.04.37-.07.55-.07t.04-.04c.41-.07.85-.15,1.26-.19h.22s.07,0,.11-.04c.52-.04,1-.04,1.55-.04,2.11,0,4.18.37,6.14,1.04.04.04.07.04.15.04Zm-73.26-126.41c.04-.07.04-.15.04-.22s0-.18-.04-.22v-67.79l73.04-35.76v226.04h-.07c-.26-.07-.55-.18-.85-.22-.15-.07-.26-.11-.41-.11-.11-.04-.22-.04-.33-.04-.37-.07-.74-.15-1.07-.18-.15-.04-.33-.07-.48-.11-.19-.04-.37-.04-.59-.07h-.59s-.11-.04-.15-.04c-.52-.04-1.04-.04-1.52-.04-.44,0-.81,0-1.22.04-.26,0-.48,0-.74.04h-.07c-1.26.11-2.55.33-3.77.67-.04,0-.04.04-.11.04-.41-1.74-.96-3.33-1.66-4.92-.04-.04-.04-.07-.04-.11-.04-.04-.07-.07-.07-.11-.44-1-.92-1.96-1.44-2.92-.04-.04-.07-.15-.11-.18-.15-.3-.33-.52-.48-.78-.18-.3-.37-.63-.59-.96-.18-.26-.37-.52-.59-.78l5.03-.85c.96-.22,1.7-1.04,1.7-2.07v-48.37c0-.63-.3-1.26-.78-1.66-.52-.37-1.18-.52-1.81-.33l-20.78,5.44c-.92.22-1.55,1.07-1.55,2v32.88h-.11c-.07-.04-.15-.07-.22-.07-.52-.15-1.07-.26-1.63-.41-.11,0-.22-.04-.3-.04-.15-.04-.3-.07-.41-.11-.07-.04-.15-.04-.22-.04l-.67-.11c-.19-.04-.37-.04-.52-.07l-.37-.04c-.37-.07-.74-.11-1.11-.11-.41-.07-.81-.15-1.22-.15-.15,0-.3-.04-.41-.04-.85-.04-1.66,0-2.51,0h-.52c-.78.04-1.52.11-2.29.18v-27.55c0-.63-.3-1.22-.81-1.63-.52-.41-1.18-.52-1.78-.37l-15.87,4.14c-2.11-1.63-4.4-3.11-6.84-4.36t-.07-.04v-67.46Zm53.15,107.58l-.11-.15c-.11-.11-.22-.18-.33-.33-.07-.07-.15-.19-.26-.26-.07-.11-.19-.19-.3-.3l-.19-.18c-.07-.11-.18-.18-.3-.3-.19-.18-.41-.37-.63-.55-.04-.04-.07-.07-.15-.15-.04-.04-.07-.07-.11-.11l-.11-.07c-.22-.18-.48-.44-.74-.63-.04-.07-.15-.11-.22-.19-.22-.18-.48-.33-.7-.52-1-.74-2.03-1.48-3.11-2.15-.37-.18-.67-.37-1.04-.59-.11-.07-.26-.11-.33-.18-.56-.3-1.11-.59-1.7-.81-.15-.07-.3-.15-.44-.22-.15-.04-.26-.11-.37-.15v-32.77l16.64-4.33v43.97l-5.51.96Zm-31.92-35.21v18.9c-2.29-6.07-5.88-11.58-10.5-16.12l10.5-2.77Zm-48.12-5.18h.04c.11.04.18.07.3.07.37.04.7-.11,1.04-.26.11-.04.19-.04.3-.04.7-.11,1.41-.18,2.11-.22.92-.07,1.85-.11,2.81-.11,1.74,0,3.44.11,5.14.33,3.55.44,7.03,1.37,10.32,2.77h-7.84c.15.18.26.37.41.55h8.76c.19.11.37.18.55.26l.81.44c1.78.89,3.48,1.89,5.03,3,.26.22.56.41.85.63h-13.65c.07.18.19.37.22.59h14.2c.22.15.41.33.63.48l.26.22.04.04c.19.15.33.26.52.41l.04.07c.11.04.19.15.26.22,1.04.89,2,1.85,2.92,2.85h-17.46c.04.18.07.37.15.59h17.83c.48.52.92,1.04,1.33,1.55.22.3.48.59.67.89.48.59.92,1.22,1.33,1.85t.04.04h-20.49c.04.18.04.37.07.55h20.78s.07.07.07.11c.07.11.19.26.26.41.26.37.48.74.7,1.15.3.48.55.96.81,1.44.22.41.44.78.59,1.22h-23.04v.55h23.34c.59,1.29,1.18,2.66,1.63,3.99.04.11.07.22.11.33h-25.26c0,.19-.04.37-.04.55h25.48c.07.26.15.44.19.67.33,1.04.59,2.07.81,3.11v.04c-.52.15-1,.33-1.52.52h-25.52c0,.18-.04.41-.07.59h24s-.04,0-.11.04c-.37.15-.74.33-1.11.48-.67.33-1.04.96-1.11,1.59-.07.3-.07.63.04.96.04.07.04.15.11.22.15.33.41.67.74.85.33.22.7.33,1.11.33.3,0,.59-.04.89-.18.89-.44,1.74-.81,2.63-1.11,0,0,.04-.04.07-.04.07-.04.15-.04.22-.07.81-.26,1.66-.52,2.44-.7h.04s.04-.04.07-.04h.04c.07-.04.15-.07.22-.07.41-.11.85-.22,1.26-.26h.15c1.7-.33,3.44-.48,5.25-.48,2.59,0,5.21.33,7.73,1.04.3.07.56.15.78.22.07.04.18.07.26.11h.15c.41.15.81.26,1.22.44.04,0,.11.04.15.07.52.18,1.03.41,1.55.59.3.15.63.33.92.48.19.07.37.15.52.26.26.15.52.26.78.37.44.3.85.52,1.29.81.48.26.92.59,1.37.92.19.11.33.22.48.33h-2.77c.19.22.33.41.52.59h3.03c.11.07.19.15.26.18.3.26.63.52.92.78.19.15.37.3.52.44.22.22.41.41.59.59.3.3.55.52.85.85.33.37.7.74,1.04,1.18.07.07.19.18.26.3h-5.14c.07.22.15.41.19.59h5.4c.11.11.18.22.3.33.11.15.19.26.33.41.67.89,1.26,1.85,1.81,2.81.11.26.26.52.37.74h-7.69c0,.22,0,.41-.04.59h8.03c.07.11.11.18.19.3.22.48.44.96.63,1.48.07.07.11.18.15.26.11.3.22.55.33.85,0,.04.04.11.04.11v.04s.04.04.04.07c.11.3.22.59.3.92.04.07.07.15.11.26h-10.54c-.04.22-.07.41-.15.59h10.87c.04.15.07.33.11.48.04.04.07.11.07.15v.11c.07.26.15.52.22.85,0,.04,0,.07.04.11.04.26.11.44.15.67-.04.19-.04.3,0,.44v.3c.04.11.07.22.15.37l.04.04.11.78h-13.5c-.07.22-.19.41-.3.59h13.87c.04.3.07.59.11.92v.04c.04.74.07,1.52.07,2.26v.04s.04.04.04.07c0,.37.11.7.3,1h-17.12c-.15.18-.3.37-.48.55h18.08c.37.26.78.44,1.26.44s.89-.18,1.26-.44h20.01c.07.11.19.22.26.3.07.15.19.26.3.37.19.22.37.44.52.67.15.18.22.3.33.44.07.07.15.22.22.33.22.33.44.63.67.96.11.18.22.33.33.52.11.26.26.48.41.74h-47.67c-.15.18-.3.41-.41.59h48.37s.07.11.11.18v.04c.22.48.44.96.67,1.48.04.04.04.11.07.18-.07-.04-.19-.04-.26-.04-.7-.15-1.44-.3-2.14-.37h-.22c-.74-.11-1.48-.15-2.26-.15-.7,0-1.33.33-1.7.89-.07.07-.11.15-.15.22-.15.3-.22.59-.22.89,0,.22.07.48.11.67.04.11.07.22.11.3h-44.23c-.04.19-.11.41-.11.59h44.79c.33.33.81.55,1.37.55.81.04,1.63.07,2.44.15.78.11,1.52.26,2.26.44.52.11,1.04.3,1.52.44.19.07.37.11.56.15.59.22,1.18.48,1.78.74.07.04.19.07.26.11.52.22,1.04.52,1.52.78.11.04.22.11.3.15.41.26.81.52,1.22.78h-58.06c0,.19.04.41.07.59h58.8c.37.3.7.55,1.04.89.22.15.41.37.63.52.26.3.52.52.78.78.19.22.37.41.59.63.22.3.48.59.74.89.11.18.3.37.44.59h-61.73c.11.22.22.41.33.63h61.84c.22.33.44.63.63.96.11.15.19.3.26.48.56.92,1,1.85,1.37,2.81v.04h-61.1l.59.59h60.76c.48,1.41.89,2.81,1.04,4.29h-55.25c.52.22,1.07.41,1.63.59h53.74c.19,1.44.19,2.88.04,4.29v.04h-45.19c.19.18.37.37.52.55h44.64c-.11.81-.22,1.66-.44,2.48,0,.04-.04.07-.04.11-.15.63-.33,1.18-.52,1.74h-41.53c.04.19.07.37.07.55h41.27c-.04.15-.11.26-.15.37-.11.26-.19.48-.3.7-.07.19-.15.37-.22.55-.11.22-.18.44-.3.67-.33.59-.67,1.22-1.07,1.81,0,.07-.04.11-.07.18-.04.04-.07.04-.11.11-.15.18-.22.33-.37.52-.22.37-.52.7-.78,1.04-.15.26-.33.44-.52.63-.3.37-.63.7-.96,1.07-.15.18-.37.33-.55.55-.48.44-1,.89-1.55,1.29v.04h-.04c-.44.37-1,.74-1.52,1.07-.19.07-.33.22-.52.33-.7.44-1.44.81-2.22,1.18-.11.04-.22.15-.33.22-.15.11-.3.18-.41.33-.04.07-.11.15-.15.26-.07.04-.07.11-.11.22-.19.26-.22.59-.19.92h-34.06c-.26.26-.52.41-.78.59h34.95s.04.11.04.15c.26.59.74.92,1.29,1.11v.04c.19.07.41.07.59.07.3,0,.59-.04.85-.19.78-.33,1.48-.74,2.22-1.18.04.44.04.89.04,1.29.04.55.07,1.11.04,1.66,0,.44-.04.85-.07,1.26v.07h-53.22c-.26.22-.48.41-.7.59h53.85c-.04.37-.07.7-.11,1.04-.07.41-.15.81-.22,1.22-.11.52-.22,1.11-.41,1.7-.04.11-.04.22-.07.37h-56.7c-.15.18-.26.37-.37.59h56.84s0,.07-.04.15c-.07.3-.18.55-.3.85-.07.3-.19.59-.3.85-.11.3-.26.59-.41.89-.22.52-.48,1.07-.78,1.55h-56.95c-.07.18-.15.37-.19.59h56.81c-.07.15-.15.3-.22.44-.04.04-.04.11-.11.18-.37.55-.74,1.11-1.15,1.66-.19.26-.33.52-.52.78-.33.41-.7.81-1.11,1.22-.26.33-.55.7-.89,1.04-6.58,6.55-16.09,8.77-24.67,6.36-1.63-.48-3.22-1.07-4.77-1.92h24.5c.41-.18.78-.37,1.15-.59h-26.72c-.41-.22-.78-.48-1.18-.7-.22-.15-.44-.26-.7-.33h-.07c-.78-.15-1.59.18-2.03.85-.07.07-.11.11-.11.18h-19.53c0,.19,0,.41.04.59h19.27c-.04.15-.07.26-.07.37,0,.7.33,1.37.96,1.78.7.48,1.44.89,2.18,1.29t.11.04c.56.33,1.11.59,1.66.85h-23.74c.04.18.04.37.11.55h23.63c.15-.07.3-.22.44-.37,0,0,0,.04.04.04-.41.37-.78.67-1.22.96-.07.04-.15.07-.19.18-.41.26-.81.48-1.18.7-.15.07-.3.18-.44.22-.37.26-.74.41-1.15.63-.19.07-.37.15-.55.22-.37.15-.74.3-1.11.44-.15.04-.26.07-.37.11h-12.65c-.89-.26-1.78-.63-2.63-1-.3-.11-.63-.3-.92-.44-.33-.15-.67-.33-1-.52-.3-.15-.55-.33-.85-.52-.33-.18-.67-.37-.96-.63-.22-.11-.44-.3-.63-.48-.37-.26-.74-.55-1.11-.81-.26-.26-.52-.48-.78-.7-.3-.26-.59-.55-.85-.78-4.18-4.18-6.62-9.65-6.84-15.31v-.15c-.18-5.55,1.78-10.69,5.51-14.42.15-.11.22-.3.3-.44.48-.78.41-1.81-.3-2.48-.37-.41-.89-.55-1.41-.55-.44,0-.89.11-1.26.37-.07.07-.19.11-.26.18-4.59,4.59-6.99,10.87-6.73,17.64.04.85.11,1.66.22,2.48.04.15.07.3.07.41.11.67.22,1.26.37,1.96.07.33.19.67.3,1.07.11.41.22.74.33,1.15.19.52.33,1,.55,1.48.07.22.15.44.26.67.26.59.52,1.15.81,1.78.07.07.11.22.18.3.3.63.67,1.26,1.04,1.85.04.07.07.11.11.18.41.59.81,1.18,1.26,1.81.04.04.11.07.11.15.44.55.92,1.07,1.37,1.63.07.04.07.07.11.11v.07c-.56,1.59-1.33,3.11-2.18,4.55-.07.07-.11.15-.15.22-.44.67-.85,1.29-1.37,1.89-.26.41-.59.7-.89,1.04-.26.33-.55.67-.85,1-.07.04-.11.07-.15.15-.22.18-.44.37-.67.59-.89.81-1.89,1.59-2.88,2.26-.07.04-.11.07-.19.11-.67.41-1.33.78-2,1.15-.04,0-.11.07-.15.07-.7.33-1.44.67-2.14.92q-.07.04-.11.04c-.74.3-1.52.52-2.29.74h-.04c-.78.19-1.59.37-2.4.48h-.04c-.78.11-1.59.19-2.4.19h-.04c-.81.04-1.63,0-2.48-.04h-.04l-10.1-10.28-36.24-36.8-31.99-32.51c-.78-.81-2.11-.81-2.88-.04l-32.99,32.06c-.41-.04-.85-.07-1.29-.19-.44-.04-.81-.15-1.22-.26-.41-.07-.85-.18-1.22-.37-.78-.3-1.55-.63-2.26-1.04-1.11-.63-2.11-1.33-3-2.22-.59-.55-1.11-1.15-1.63-1.81-.26-.33-.48-.67-.67-1t-.07-.11c-.41-.63-.74-1.37-1.11-2.15-.11-.33-.26-.74-.41-1.15-.11-.44-.22-.85-.33-1.26-.07-.33-.15-.7-.19-1.04,0-.07-.04-.15-.04-.22v-.15c-.04-.26-.07-.52-.07-.78-.04-.67,0-1.18,0-1.85.04-.63.11-1.29.22-1.89.04-.3.07-.59.19-.92.04-.26.15-.59.22-.85.3-.89-.04-1.85-.78-2.37-5.03-3.44-8.43-8.65-9.58-14.57-.3-1.48-.44-3-.44-4.48,0-12.76,10.39-23.15,23.15-23.15.44,0,.85,0,1.29.04.33.04.63.04.92.11.33,0,.67.04,1,.11.07,0,.11,0,.19.04.44.04.89.15,1.33.22,1.29.33,2.59.7,3.85,1.22h.07c0,.07-.04.18-.04.22-.07.63-.11,1.18-.15,1.81-.04.48-.04,1.04-.07,1.55v.7c0,1.41.07,2.77.22,4.22.04.11.04.22.04.33.19,1.29.41,2.63.67,3.92.11.44.37.85.7,1.15,0,0,0,.04.04.04.11.07.22.11.33.18.07.04.19.11.26.11.15.04.26.04.37.07s.22.07.33.07c.15,0,.3,0,.44-.04,1.11-.26,1.81-1.37,1.55-2.48-.56-2.48-.85-5.07-.85-7.58,0-1.74.15-3.55.41-5.25v-.04c.63-4.14,2.03-8.1,4.03-11.58.52-.85,1.04-1.74,1.63-2.59.55-.78,1.18-1.63,1.81-2.37.63-.78,1.33-1.52,2.03-2.26.67-.67,1.41-1.37,2.18-2.03,3.48-3,7.62-5.33,12.09-6.73.81-.26,1.7-.52,2.59-.74,2.48-.55,5.03-.89,7.69-.89,2.81,0,5.62.33,8.32,1.04h.04c3.59.89,6.99,2.37,10.1,4.36.11.07.22.15.33.22,1.11.7,2.18,1.52,3.22,2.37,1.89,1.59,3.66,3.37,5.21,5.36.22.3.52.48.81.59.3.11.56.18.81.18.3,0,.59-.11.89-.22.11-.07.26-.11.37-.22.92-.7,1.07-1.96.37-2.92-.04-.04-.15-.11-.19-.18-.3-.33-.55-.7-.85-1.04-.3-.37-.63-.74-.96-1.07-.07-.11-.15-.18-.22-.26-.41-.41-.81-.85-1.22-1.26-.22-.22-.44-.44-.7-.67,0-.04-.04-.04-.04-.07-.15-.07-.26-.19-.41-.33-.07-.07-.19-.15-.26-.22-.11-.07-.19-.15-.3-.26-.3-.26-.59-.52-.92-.81-.11-.04-.26-.15-.33-.22-.33-.3-.67-.52-1-.78-.26-.18-.48-.37-.74-.55-.07-.04-.15-.07-.22-.15-.26-.18-.48-.37-.74-.48-.44-.3-.89-.59-1.37-.85-.41-.26-.81-.52-1.26-.78-.04,0-.04-.04-.07-.04-2.14-1.22-4.47-2.22-6.84-2.96v-.04h.04c.33-.67.74-1.33,1.15-1.96.26-.48.55-.89.89-1.37.15-.26.37-.55.55-.85.37-.48.7-.96,1.11-1.41.07-.11.11-.18.22-.26.37-.52.78-1,1.18-1.44.15-.18.26-.3.41-.41.41-.52.85-.96,1.29-1.41.59-.55,1.22-1.11,1.81-1.7.67-.55,1.33-1.11,2-1.63.92-.7,1.81-1.37,2.77-1.96,1.44-.92,2.88-1.78,4.4-2.48,1.04-.48,2.07-.96,3.14-1.37,1.07-.41,2.15-.74,3.22-1.07.78-.18,1.52-.37,2.29-.59.41-.07.85-.11,1.26-.22.3-.07.59-.11.92-.18Zm-78.65,48.37s.02,0,.04.01c.15.05.31.1.45.14.01-.06.03-.11.05-.17-.01.05-.03.12-.03.17v.04c-.15-.07-.3-.15-.48-.18,0,0-.01,0-.02,0ZM37.2,146.37l.11-.11s.04-.07.07-.07c0-.07.04-.04.04-.04l.15-.15c.11-.11.19-.18.3-.26.19-.16.37-.33.56-.51-.43.39-.85.79-1.28,1.19.01-.03.02-.08.05-.05Zm-.37.33c.1-.13.17-.19.27-.23-.09.08-.18.16-.27.25h0Zm-.04.04c0-.06.02-.03.03-.01-.1.09-.2.19-.31.28.09-.09.18-.18.28-.27Zm-5.03,4.99l.06-.03s-.04.04-.06.06c.01,0,0-.03,0-.03Zm-8.25,130.26c-.19-.26-.35-.53-.53-.79.29.41.58.83.88,1.24-.11-.15-.23-.29-.34-.44Zm17.6,18.82c-2.02-1.67-3.93-3.41-5.81-5.25-.08-.08-.16-.14-.24-.22-.24-.25-.51-.47-.82-.83-1.41-1.4-2.75-2.85-4.06-4.32-.32-.35-.63-.7-.93-1.06-1.04-1.19-2.03-2.41-3.01-3.64-.49-.6-.95-1.21-1.41-1.82-.82-1.08-1.61-2.18-2.38-3.28-.58-.83-1.14-1.68-1.7-2.53-.67-1.02-1.32-2.05-1.95-3.09.46.77.93,1.53,1.41,2.28-.1-.16-.22-.31-.32-.48-.59-.92-1.15-1.85-1.7-2.77-.15-.26-.3-.48-.44-.74-.3-.52-.59-1.04-.89-1.59-.19-.3-.33-.59-.48-.89-.19-.3-.33-.59-.48-.92-.67-1.22-1.29-2.44-1.85-3.7-.04,0-.04-.04-.04-.07-.26-.52-.52-1.04-.74-1.59-.11-.19-.19-.37-.26-.55-.33-.74-.67-1.48-.96-2.22-.44-1.04-.85-2.03-1.22-3.07l-.55-1.44c-.07-.18-.15-.37-.19-.52-.19-.55-.37-1.07-.56-1.63-.04-.07-.07-.15-.07-.22-.26-.74-.52-1.52-.74-2.29-.52-1.59-.96-3.22-1.41-4.84-.63-2.48-1.15-4.96-1.59-7.51-.33-1.66-.55-3.37-.78-5.07-.11-.85-.22-1.74-.3-2.59-.11-.85-.19-1.74-.22-2.59-.07-.89-.15-1.74-.18-2.59v-.04c-.04-.7-.04-1.41-.07-2.11v-.11c0-.3-.04-.59-.04-.89v-4.84c.04-.55.07-1.15.07-1.7.04-.67.07-1.37.11-2.03.04-.55.07-1.07.11-1.59.04-.48.07-.92.11-1.41.04-.33.07-.67.11-1.04.07-.67.15-1.29.22-1.96,0-.15.04-.3.04-.41.07-.67.19-1.33.26-2l.11-.67c.07-.41.11-.81.19-1.22.11-.63.22-1.22.33-1.81v-.15c.11-.67.26-1.29.37-1.92.11-.52.22-1,.33-1.52.07-.3.11-.59.19-.85.11-.48.22-.92.33-1.41.11-.52.26-1.04.41-1.55,0-.07.04-.18.04-.26.18-.67.37-1.33.55-2,.15-.52.3-1.04.44-1.55.04-.11.07-.18.11-.3.19-.59.33-1.18.56-1.74.11-.44.26-.89.41-1.29.07-.18.11-.33.19-.48.19-.59.41-1.15.59-1.74.19-.44.33-.92.52-1.37.07-.19.15-.41.22-.59.22-.52.41-1.04.59-1.52.18-.44.37-.85.55-1.26.07-.22.19-.48.3-.7.19-.44.37-.89.59-1.33.26-.63.55-1.26.85-1.89.7-1.52,1.48-3,2.26-4.47.3-.52.59-1.07.89-1.63l.89-1.55c.04-.07.11-.22.18-.3.12-.22.25-.42.38-.64.13-.22.26-.44.4-.66.16-.29.33-.59.52-.85.11-.18.22-.37.33-.55.05-.07.09-.14.13-.21-.16.25-.3.52-.46.77.38-.61.76-1.23,1.15-1.83-.1.15-.21.3-.31.45.09-.13.17-.27.26-.4.05-.08.09-.13.13-.18-.03.04-.05.08-.08.13.16-.26.34-.5.51-.75-.12.18-.26.35-.38.53v-.02c.59-.89,1.18-1.74,1.78-2.59.07-.11.15-.22.22-.33.03-.05.07-.1.11-.14-.59.84-1.16,1.7-1.73,2.55,1.11-1.67,2.26-3.31,3.47-4.92.18-.24.36-.48.54-.71,1.34-1.75,2.73-3.48,4.19-5.15-.32.37-.64.74-.96,1.12.17-.21.35-.42.52-.62.11-.19.26-.33.44-.52,0-.07.07-.11.15-.19h.02c-.05.06-.1.12-.15.17.05-.06.11-.11.16-.17h0s.02-.02.03-.04c1.43-1.63,2.92-3.23,4.46-4.78.08-.08.16-.17.24-.25.06-.06.13-.12.19-.19,2.04-2.03,4.15-3.96,6.32-5.79-.24.2-.49.4-.73.61.17-.14.33-.29.5-.43.07-.07.15-.15.26-.22.22-.22.44-.41.67-.55.44-.37.89-.74,1.37-1.11.03-.02.06-.05.09-.07-.5.4-.98.82-1.48,1.22,1.06-.88,2.13-1.73,3.21-2.56-.15.12-.31.22-.46.34,0,0,0,0,0,0,.07-.07.11-.11.18-.15,1.15-.89,2.29-1.74,3.48-2.55.02,0,.04-.03.05-.04-.85.59-1.67,1.22-2.5,1.84.86-.65,1.73-1.3,2.61-1.91.09-.06.19-.12.28-.19.7-.52,1.44-1,2.15-1.48,1.29-.85,2.59-1.66,3.92-2.44.63-.41,1.29-.78,1.96-1.18,1.44-.81,2.92-1.59,4.44-2.33.59-.33,1.22-.63,1.81-.92.52-.22,1.03-.48,1.59-.7.22-.11.44-.22.7-.33.7-.33,1.41-.63,2.11-.92.67-.3,1.37-.55,2.03-.81.15-.07.3-.15.44-.19.7-.3,1.44-.55,2.18-.81.78-.3,1.59-.59,2.37-.85.63-.22,1.26-.41,1.89-.63.96-.3,1.96-.59,2.92-.85.63-.18,1.29-.37,1.96-.55.22-.04.44-.11.7-.18.59-.11,1.15-.26,1.74-.41.22-.04.44-.11.67-.15.67-.15,1.33-.3,2-.44.15-.04.3-.04.44-.11.67-.11,1.33-.26,2-.37.19-.04.33-.04.52-.11.63-.07,1.22-.18,1.85-.3.59-.07,1.22-.18,1.81-.26.56-.07,1.11-.15,1.66-.22,1.63-.18,3.22-.37,4.88-.48.85-.07,1.7-.11,2.59-.15,1.74-.11,3.51-.15,5.29-.15.81,0,1.63,0,2.44.04.33,0,.67,0,1,.04.63,0,1.26.04,1.89.07.81.04,1.66.07,2.51.15.19,0,.37.04.52.04.48.04.96.07,1.41.11.15.04.26.04.41.04.48.07,1,.11,1.48.18.37,0,.7.07,1.07.11.44.04.85.11,1.29.19.44.04.89.11,1.33.18.41.04.81.11,1.22.18.44.07.89.15,1.33.22.74.11,1.48.26,2.18.41.92.18,1.85.37,2.77.59.59.11,1.18.26,1.78.41,1.11.26,2.22.55,3.29.89.78.22,1.52.44,2.29.67,28.11,8.54,50.96,28.77,63.06,55.03.44.92.81,1.81,1.22,2.74.15.37.3.74.44,1.07.52,1.26,1,2.48,1.48,3.7.07.33.19.63.3.92.19.41.33.85.48,1.29.11.37.26.78.37,1.15.07.18.15.41.19.59.07.11.07.22.11.33.44,1.29.81,2.63,1.18,3.96.26.89.48,1.74.7,2.63v.11s.04.07.04.11c1.96,7.95,3,16.31,3,24.89h-.07c-.18.04-.41.07-.59.11-.59.15-1.18.3-1.78.41-.07.04-.11.04-.15.04-.7.18-1.41.41-2.07.59-.11.04-.18.07-.26.07-.41.11-.81.26-1.18.41h-.15c-.52.18-1.04.37-1.59.59h.11c-.63.22-1.26.48-1.85.74-.15.07-.26.11-.37.18-.33.11-.63.26-.96.41-.33.15-.63.33-.92.48h-.04c-.33.15-.63.33-.96.48-.3.19-.56.37-.85.52-.15.07-.26.15-.41.18-.26.19-.52.33-.81.52-.26.15-.48.33-.74.48l-.07.04c-.41.26-.85.55-1.26.85-.55.37-1.04.74-1.55,1.15-.3.22-.55.41-.81.59-.55.44-1.11.92-1.63,1.41-1.41,1.22-2.77,2.59-4.07,4.03-1.66,1.92-3.22,3.99-4.62,6.29v.04c-.37.59-.74,1.22-1.07,1.81-.11.22-.26.44-.37.67-2.55-.52-5.1-.78-7.73-.78-.63,0-1.25.1-1.85.14,0,0,0,0-.01,0-.03,0-.07,0-.1,0-.03,0-.06,0-.09,0,.06,0,.13,0,.19-.01-.15,0-.3.02-.45.03-.09,0-.19,0-.27.02-.1,0-.21.01-.31.03-1.05.08-2.1.15-3.13.31-.07,0-.15.02-.21.03l-.11.02s-.02,0-.04,0l-.63.09c-.19.04-.41.11-.63.15-.41.07-.81.15-1.22.26-.34.07-.68.16-1.03.24-.17.04-.37.07-.54.11.15-.04.3-.05.45-.09-.15.04-.29.06-.44.1-.44.11-.89.22-1.33.37-.15.04-.33.11-.48.15-.19.07-.37.15-.59.18-.33.15-.67.26-1,.37-.63.26-1.26.52-1.89.78-.04,0-.11.04-.15.07-.3.11-.59.26-.85.41h-.04c-.41.18-.78.37-1.18.59-2.33,1.22-4.51,2.63-6.51,4.29h-.04c-.22.22-.44.37-.67.59-.41.33-.78.67-1.15,1-.3.26-.55.52-.81.81-.04.04-.11.07-.15.11-.19.22-.37.41-.59.63-.44.48-.89.96-1.33,1.48-.78.92-1.48,1.81-2.14,2.7-.22.3-.41.59-.63.89-.22.33-.44.7-.67,1.04-.11.18-.22.37-.33.55-.11.18-.22.37-.37.59h.04c-.37.59-.7,1.18-1,1.81-.04,0-.04.04-.07.07-.11.22-.18.41-.3.63-.15.26-.26.52-.37.78-.15.33-.3.67-.44,1-.11.18-.19.41-.26.59-.07.18-.15.41-.22.63-.11.18-.15.37-.22.55-.07.18-.15.37-.19.55-.26.7-.48,1.37-.67,2-.22.78-.37,1.44-.55,2.07l-.67.19c-5.73-1.85-13.24-2.66-20.27.18-9.36,4.55-15.75,14.57-15.75,25.63,0,1.78.22,3.55.55,5.25,1.26,6.55,4.81,12.28,10.06,16.35-.07.22-.11.48-.15.7-.04.22-.07.44-.11.7-.07.48-.15.96-.15,1.44h-.48c-24.15-.07-46.86-8.47-65.2-23.82Zm20.78,126.74l-11.69-2.14,11.69-2.77v4.92Zm-13.2-5.99l-1,.22-.22.04-.48.11.18-.15.52-.52.81-.81,1.44-1.37,6.47-6.32,69.6-67.79h.07l.52-.52,1.07-1.04.04-.04,31.07-30.25.04.07,3.74,3.77h-3.77v.55h4.33l4.25,4.33h-8.62l-.04.59h9.21l4.22,4.29h-13.46l-.04.59h14.09l4.22,4.29h-18.34v.59h18.94l4.22,4.29h-23.23v.63h23.85l4.22,4.29h-28.11l-.04.59h28.74l4.22,4.29h-32.99l-.04.59h33.62l.26.3,4.07,4.14h0s-38.15,0-38.15,0l-.02.58h38.76s4.36,4.45,4.36,4.45h.01s-43.12.01-43.12.01l-.02.58h43.72s4.1,4.17,4.1,4.17h-47.8l-.02.58h48.39l4.09,4.17h0s-52.47,0-52.47,0l-.02.58h53.08s4.22,4.3,4.22,4.3h.01s-57.35.01-57.35.01l-.02.58h57.95s4.24,4.31,4.24,4.31h-62.22l-.02.58h62.82l4.1,4.17h0s-66.9,0-66.9,0l-.02.58h67.51s4.07,4.16,4.07,4.16l.02.02h-71.58l-.02.58h72.18l4.51,4.58h-76.85l-.04.59h77.48l4.22,4.29h-81.73v.48c-.15,0-.22,0-.37.04l-108.73,25.85Zm39.5,60.14c-.04-.07-.11-.07-.15-.15-.92-.96-1.81-1.92-2.7-2.88-.92-.96-1.81-2-2.7-2.96-.85-.96-1.7-1.92-2.52-2.92-1.7-2-3.33-4.03-4.92-6.1h-.04c-1.07-1.44-2.18-2.85-3.22-4.29-.07-.07-.15-.22-.22-.33-1-1.37-2-2.74-2.96-4.14-.63-.96-1.26-1.89-1.85-2.81-.3-.44-.63-.89-.89-1.33v-32.14l90.05-21.38v66.79c-.78.11-1.59.19-2.37.3-1.59.26-3.14.52-4.73.81-.19.07-.37.11-.56.15-1.04.18-2,.37-3.03.55-4.59,1-9.1,2.22-13.54,3.66h-.04c-.89.3-1.74.59-2.63.89-1.18.41-2.37.85-3.55,1.29-1.04.37-2.07.78-3.11,1.22-.18.07-.37.11-.55.18-.11.04-.22.11-.3.15-1.18.52-2.37,1-3.51,1.52-1.29.55-2.51,1.11-3.77,1.74-1.78.85-3.51,1.7-5.21,2.63-.3.15-.59.33-.89.52-.74.37-1.44.74-2.15,1.15-.92.52-1.81,1.04-2.66,1.55h-.04c-1.18.74-2.37,1.44-3.51,2.18-1.18.74-2.33,1.48-3.48,2.29-2.85-2.63-5.62-5.33-8.28-8.14Zm21.49,19.23c-1.74-1.29-3.4-2.66-5.1-4.03-1.66-1.37-3.29-2.81-4.92-4.25.04-.04.11-.07.15-.11.07-.04.11-.07.19-.11.96-.67,2-1.29,2.96-1.89.41-.3.81-.52,1.22-.74.63-.41,1.26-.81,1.89-1.15.33-.22.7-.41,1.04-.67.55-.26,1.07-.59,1.59-.89.7-.37,1.41-.78,2.11-1.15.15-.07.33-.15.44-.22.44-.26.89-.48,1.33-.67.44-.26.89-.52,1.37-.74,0,0,.04,0,.04-.04.74-.33,1.44-.7,2.18-1.07.3-.11.52-.22.78-.37.22-.07.41-.18.59-.26.44-.22.92-.44,1.44-.67.44-.22.92-.41,1.41-.63.89-.37,1.81-.78,2.7-1.15,1.07-.44,2.15-.89,3.26-1.29.11-.04.18-.07.3-.15.15-.04.3-.07.44-.11,1.11-.44,2.22-.81,3.33-1.22,1.04-.37,2.03-.7,3.11-1.04,1.66-.55,3.37-1.04,5.07-1.52.67-.22,1.33-.37,2-.52.26-.07.52-.15.78-.22.52-.15,1.04-.26,1.55-.37,3.07-.78,6.18-1.37,9.28-1.89,2.11-.37,4.22-.67,6.32-.92,15.09-1.85,30.73-1.18,46.45,2,23.15,4.66,42.05,5.73,56.95,5.07.56-.04,1.11-.04,1.63-.07,1.18-.07,2.33-.19,3.44-.22.92-.07,1.78-.15,2.66-.22.33-.04.63-.07.92-.07,1.92-.22,3.74-.41,5.47-.67,1.7-.22,3.37-.44,4.92-.74h.04c.33-.04.63-.11.96-.18.19-.04.41-.04.59-.11.3-.07.63-.11.92-.18.15,0,.33-.04.52-.07-1.37.48-2.85.96-4.4,1.44-.37.11-.74.22-1.15.33-.59.18-1.15.33-1.74.48-.44.15-.89.26-1.33.33-.59.15-1.15.33-1.78.48-4.33,1.07-8.88,1.96-13.54,2.63-12.76,2-26.78,2.59-41.9,1.81-5.62-.26-11.35-.7-17.31-1.37-5.77-.63-11.54-.96-17.23-.96-8.73,0-17.35.7-25.7,2.18-6.44,1.11-12.69,2.7-18.82,4.7h-.11c-2,.67-3.99,1.37-5.99,2.11-.04,0-.07.04-.11.07-2,.74-3.99,1.52-5.95,2.37h-.04c-5.88,2.55-11.61,5.51-17.12,8.84-.04.04-.07.04-.07.07Zm3.85,2.51c3.48-2.07,6.99-3.88,10.54-5.62.04,0,.07-.04.07-.04,1.77-.81,3.55-1.59,5.36-2.37.15-.04.26-.11.37-.18,1.7-.67,3.44-1.33,5.14-2,.33-.15.63-.22.92-.33,1.59-.55,3.18-1.11,4.73-1.63.55-.19,1.11-.33,1.66-.48,1.37-.44,2.77-.89,4.18-1.26.81-.18,1.59-.37,2.4-.59,1.18-.3,2.4-.63,3.62-.89.78-.15,1.55-.3,2.33-.44,1.26-.26,2.48-.52,3.74-.74,11.95-2.15,24.45-2.66,37.21-1.63,1.52.11,3.07.26,4.59.41,28.14,3.14,53.11,2.07,74.19-3.14,1.44-.37,2.81-.74,4.14-1.11.15-.04.26-.11.37-.11,1.22-.33,2.37-.7,3.48-1.07-1.04.7-2.22,1.41-3.44,2.07-.15.07-.26.18-.37.22-.41.18-.78.41-1.15.63-.07.04-.18.07-.3.11-.74.41-1.48.78-2.29,1.15-.18.11-.37.19-.52.26-.37.18-.78.37-1.15.55-.26.07-.52.18-.74.33-.41.15-.78.3-1.18.48-.3.11-.63.26-.96.37-.63.26-1.22.52-1.85.74-.41.15-.78.3-1.15.44-.37.11-.78.22-1.15.37-.41.15-.85.3-1.26.44-.37.11-.7.26-1.07.37-.78.22-1.55.48-2.33.67-.3.11-.59.22-.89.3-.59.15-1.15.3-1.78.48-.37.11-.7.18-1.07.26-.63.18-1.26.33-1.92.48-.33.07-.59.15-.92.22-.92.26-1.92.44-2.88.67-.26.04-.52.07-.74.11-.81.15-1.63.33-2.48.48-.33.04-.67.11-1,.15-.89.18-1.85.33-2.77.48-.19,0-.37.04-.55.07-1.18.18-2.37.33-3.62.48-.19.04-.41.04-.59.07-1.04.15-2.11.26-3.22.37-.26.04-.55.04-.85.07-1.26.11-2.51.26-3.81.33-.04,0-.07.04-.11.04-1.37.07-2.81.15-4.29.22-.19,0-.37,0-.59.07-1.26.04-2.55.07-3.88.11-.22.04-.52.04-.74.04-3.03.07-6.21.11-9.5.07-.26,0-.52,0-.74-.04-1.44-.04-2.88-.07-4.36-.11h-.89c-1.74-.07-3.48-.18-5.29-.26l-.52-.04-.85-.04c-15.87-.92-29.59-1.66-43.16,2.48-1.52.44-3.03.92-4.59,1.44-4.44,1.52-8.84,3.29-13.17,5.25-.15.07-.26.11-.37.15h-.11c-1.29-.07-2.59-.18-3.92-.22-1.33-.11-2.63-.18-3.99-.22-2.66-.07-5.36-.11-8.06-.11-3.33,0-6.62.04-9.99.18t.07-.04Zm175.26,26h-5.58c-.22.22-.52.41-.74.59h4.55c-2.7.92-5.4,1.81-8.14,2.59-17.23,5.07-35.21,7.66-53.44,7.66-2.29,0-4.55-.04-6.81-.11-.59-.04-1.22-.07-1.81-.11-.78,0-1.52-.04-2.29-.07-1.26-.07-2.48-.18-3.74-.26-1.11-.15-2.18-.18-3.29-.3-.44,0-.92-.07-1.33-.11-.52-.07-.96-.11-1.44-.15-.78-.11-1.44-.18-2.15-.26-1.59-.15-3.07-.41-4.44-.59-1.15-.15-2.26-.33-3.4-.48-.41-.07-.81-.15-1.22-.22-.41-.07-.81-.15-1.22-.22-1.55-.22-3.11-.55-4.62-.85-.11-.04-.22-.07-.33-.07l-2.11-.44-.52-.15h-.07c-1.55-.3-3.11-.67-4.62-1.04l-3.66-.96h-.04c-1.15-.3-2.33-.63-3.55-1-1-.26-2.07-.59-3.18-.92-.52-.19-1-.33-1.55-.48t-.07-.04l-.81-.26c-1.15-.41-2.22-.74-3.25-1.07-1.41-.48-2.74-.96-4.07-1.48l-.96-.33c-1.29-.48-2.55-.96-3.81-1.48-1.15-.44-2.26-.89-3.37-1.37l-.74-.33c-.26-.11-.55-.22-.81-.37-1-.41-2.03-.85-3.03-1.29-1.15-.55-2.37-1.07-3.51-1.66-.04,0-.07-.04-.11-.04l-.18-.07h-.04c-.89-.44-1.81-.89-2.74-1.37s-1.81-.92-2.74-1.44c-.89-.44-1.81-.92-2.7-1.41-.89-.48-1.81-.96-2.7-1.48-1.78-1-3.55-2.03-5.29-3.11-1.74-1.07-3.48-2.22-5.21-3.33,1.41.26,2.81.55,4.22.85.33.04.59.11.89.15,1.07.22,2.07.48,3.11.67.81.19,1.59.37,2.33.55.85.18,1.66.37,2.48.59,1,.26,1.96.48,2.92.74.74.18,1.44.37,2.18.59,1.07.26,2.11.55,3.14.85.7.22,1.37.41,2.07.63,1.04.3,2.11.63,3.18.96.7.18,1.41.41,2.07.67.96.3,1.92.59,2.88.92.81.3,1.63.55,2.44.85.48.15.96.33,1.44.52,1.15.44,2.37.81,3.55,1.29.11,0,.22.04.48.18l2.26.85c.41.18.85.33,1.29.48,8.69,3.37,19.01,6.73,30.33,9.43,13.17,3.14,27.74,5.33,42.68,5.33,4.77,0,9.58-.26,14.39-.74,1.07-.11,2.18-.19,3.25-.33,10.47-1.29,20.3-3.81,29.4-7.47,2.26-.92,4.47-1.89,6.66-2.96h8.25c-3.66,1.55-7.32,2.96-10.98,4.29Zm12.39-4.88h-8.43c2.66-1.33,5.21-2.77,7.73-4.33h9.91c-3.03,1.52-6.1,3-9.21,4.33Zm10.35-4.88h-10.13c2.15-1.37,4.25-2.81,6.29-4.33h11.83c-2.63,1.52-5.29,2.96-7.99,4.33Zm8.99-4.92h-12.02c1.81-1.37,3.59-2.77,5.29-4.29h13.83c-2.37,1.48-4.7,2.92-7.1,4.29Zm12.5-7.91c-1.48,1.04-3,2.03-4.51,3.03h-14.02c1.55-1.37,3.11-2.81,4.62-4.29h15.68c-.55.44-1.15.81-1.78,1.26Zm2.59-1.85h-15.94c.22-.22.41-.37.59-.59l.04-.04c.07-.07.19-.18.3-.3,1.07-1.11,2.11-2.22,3.14-3.4h17.68c-1.89,1.52-3.81,2.96-5.81,4.33Zm6.55-4.88h-17.94c.41-.44.78-.89,1.15-1.29l.59-.7c.63-.74,1.26-1.55,1.85-2.33h19.68c-1.74,1.52-3.51,2.92-5.33,4.33Zm5.99-4.88h-19.9c.04-.07.07-.11.11-.15,1.07-1.37,2.14-2.74,3.18-4.18h21.52c-1.63,1.48-3.25,2.92-4.92,4.33Zm5.55-4.92l-.04.04h-21.71v-.04c.89-1.22,1.78-2.51,2.63-3.85.07-.15.19-.3.26-.44h23.37c-1.48,1.48-3,2.92-4.51,4.29Zm5.14-4.88h-23.59c.92-1.41,1.81-2.85,2.63-4.29h25.19c-1.41,1.44-2.77,2.88-4.22,4.29Zm4.81-4.92l-.04.04h-25.37v-.04c.3-.48.59-.96.89-1.48.3-.55.67-1.11.96-1.66.22-.37.41-.74.59-1.11h26.85c-1.26,1.44-2.59,2.88-3.88,4.25Zm4.4-4.88h-27.03c.74-1.29,1.44-2.59,2.15-3.92.07-.15.15-.26.22-.37h28.37c-1.18,1.48-2.4,2.88-3.7,4.29Zm4.14-4.88h-28.51c.56-1.04,1.11-2.03,1.66-3.11.22-.41.44-.78.67-1.18h29.62c-1.07,1.44-2.22,2.88-3.44,4.29Zm3.92-4.88h-29.81c.74-1.41,1.55-2.85,2.33-4.33h30.73c-1.07,1.48-2.15,2.92-3.25,4.33Zm3.66-4.88h-30.84c.22-.37.41-.7.59-1.07.59-1.07,1.18-2.14,1.78-3.25h31.51c-1,1.44-2,2.88-3.03,4.33Zm3.4-4.88h-31.55c.78-1.44,1.59-2.88,2.4-4.33h31.95c-.92,1.44-1.85,2.88-2.81,4.33Zm5.07-8.03c-.59,1.07-1.26,2.11-1.89,3.11h-31.99c.81-1.44,1.66-2.85,2.48-4.29h32.1c-.22.41-.44.81-.7,1.18Zm1.04-1.78h-32.06c.81-1.44,1.7-2.85,2.59-4.29h31.95c-.81,1.44-1.63,2.88-2.48,4.29Zm2.81-4.88h-31.92c.85-1.44,1.78-2.85,2.7-4.29h31.47c-.74,1.44-1.48,2.88-2.26,4.29Zm2.55-4.92h-31.4c.81-1.18,1.63-2.44,2.48-3.66.15-.22.3-.41.44-.63h30.62c-.7,1.48-1.41,2.88-2.14,4.29Zm2.44-4.88h-30.51c1-1.44,2.03-2.88,3.07-4.29h29.4c-.63,1.44-1.29,2.88-1.96,4.29Zm2.22-4.88h-29.22c1.11-1.48,2.22-2.92,3.33-4.29h27.74c-.63,1.44-1.22,2.88-1.85,4.29Zm2.07-4.88h-27.48c1.18-1.48,2.4-2.92,3.62-4.33h25.52c-.52,1.44-1.11,2.88-1.66,4.33Zm1.89-4.88h-25.22c1.29-1.52,2.63-2.92,3.96-4.33h22.82c-.52,1.44-1.04,2.88-1.55,4.33Zm1.74-4.92h-22.45c.33-.33.67-.7,1.04-1.04l.19-.18c.11-.11.26-.26.41-.37l.26-.3.19-.19c.59-.55,1.22-1.11,1.78-1.66.22-.19.41-.37.59-.55h19.42c-.41,1.44-.89,2.88-1.41,4.29Zm1.59-4.88h-18.97c1.07-.96,2.11-1.89,3.14-2.77.19-.18.41-.37.63-.55.11-.07.26-.22.41-.33.22-.18.44-.37.67-.52l.11-.11h15.31c-.41,1.44-.81,2.88-1.29,4.29Zm1.48-4.88h-14.72s.07-.07.11-.11c1.29-1.04,2.59-2.07,3.92-3.03.59-.37,1.11-.78,1.7-1.15h10.17c-.41,1.44-.78,2.85-1.18,4.29Zm1.33-4.88h-9.51c.11-.07.26-.18.37-.26.59-.41,1.15-.78,1.78-1.18,1.33-.89,2.66-1.74,4.07-2.55.11-.04.22-.15.33-.18.07-.04.15-.07.22-.15h3.74c-.3,1.44-.67,2.88-1,4.33Zm1.15-4.88h-2.85c1.07-.67,2.18-1.26,3.29-1.85-.15.63-.3,1.22-.44,1.85Zm1.48-7.06c-.22.11-.44.26-.7.37-1.15.59-2.26,1.18-3.4,1.78h-45.67c.92-1.48,1.85-2.88,2.81-4.29h47.34c-.11.74-.22,1.44-.37,2.14Zm.48-2.74h-47.01c.56-.78,1.11-1.59,1.66-2.33.48-.67.92-1.33,1.44-1.96h44.6c-.22,1.44-.44,2.85-.7,4.29Zm.78-4.88h-44.23s.07-.07.07-.11c.11-.11.15-.18.26-.3.15-.18.26-.37.41-.52l.3-.37c.26-.37.56-.7.85-1.07.52-.67,1.07-1.33,1.59-1.96h41.35c-.15,1.44-.37,2.88-.59,4.33Zm.67-4.92h-40.94c1.29-1.52,2.55-2.96,3.81-4.29h37.61c-.15,1.44-.3,2.85-.48,4.29Zm.52-4.88h-37.06c.81-.85,1.66-1.74,2.55-2.55.59-.63,1.18-1.18,1.78-1.74h33.1c-.07,1.44-.22,2.85-.37,4.29Zm.41-4.88h-32.51c1.59-1.48,3.22-2.92,4.92-4.29h27.85c-.07,1.44-.15,2.85-.26,4.29Zm.26-4.88h-27.15c1.07-.85,2.18-1.7,3.25-2.55.81-.59,1.63-1.18,2.48-1.78h21.56c-.04,1.44-.07,2.88-.15,4.33Zm.18-7.99c0,1.04,0,2.07-.04,3.11h-20.71c.81-.59,1.66-1.18,2.51-1.74,1.33-.85,2.7-1.66,4.11-2.48.07-.04.11-.07.18-.11h13.94v1.22Zm-12.98-1.78c.15-.11.33-.22.52-.33,1.92-1.11,3.92-2.15,5.95-3.14v-.04c.63-.3,1.18-.55,1.78-.81h4.62c.04,1.41.11,2.85.11,4.33h-12.98Z"></path>
          <polygon class="cls-7" points="169 244.59 169.01 244.59 169.01 244.59 169 244.59"></polygon>
          <path class="cls-7" d="m19.46,167.86c-.18.28-.36.56-.53.84-.02.04-.05.08-.07.12-.12.17-.22.36-.32.55-.49.82-.98,1.65-1.45,2.48.75-1.35,1.56-2.67,2.37-3.99Z"></path>
          <path class="cls-7" d="m44.65,140.12c.25-.19.51-.37.76-.56-.25.19-.51.37-.76.56Z"></path>
          <path class="cls-7" d="m276.97,198.6c.35.29.78.43,1.21.43.21,0,.41-.04.62-.1l20.81-6.6c.85-.25,1.43-1.03,1.43-1.95v-43.31c0-.66-.31-1.28-.87-1.68-.53-.39-1.23-.51-1.85-.27l-20.82,7.12c-.82.29-1.38,1.05-1.38,1.96v42.76c0,.65.31,1.24.85,1.63Zm3.28-42.9l16.67-5.74v38.91l-16.67,5.28v-38.44Z"></path>
          <path class="cls-7" d="m244.44,143.72c.35.22.76.33,1.18.33.24,0,.51-.04.76-.14l15.93-6.31c.78-.31,1.3-1.05,1.3-1.9v-40.92c0-.72-.36-1.37-.95-1.75-.58-.38-1.32-.41-1.96-.13l-15.95,7.22c-.72.33-1.19,1.03-1.19,1.88v39.99c0,.7.33,1.34.89,1.73Zm3.24-40.43l11.79-5.33v36.3l-11.79,4.7v-35.68Z"></path>
          <path class="cls-7" d="m277.02,130.76c.36.21.74.34,1.16.34.25,0,.52-.05.76-.13l20.79-8.28c.79-.33,1.3-1.07,1.3-1.92v-42.94c0-.7-.35-1.39-.93-1.73-.6-.4-1.34-.43-1.98-.16l-20.79,9.42c-.74.31-1.21,1.05-1.21,1.86v41.81c0,.7.33,1.35.91,1.73Zm3.22-42.2l16.67-7.52v38.37l-16.67,6.6v-37.44Z"></path>
          <path class="cls-7" d="m244.39,208.92c.36.27.79.41,1.22.41.2,0,.41-.05.62-.11l15.93-5.03c.87-.27,1.45-1.08,1.45-1.98v-42.29c0-.66-.34-1.27-.87-1.67-.54-.4-1.24-.49-1.86-.29l-15.95,5.49c-.83.28-1.38,1.07-1.38,1.96v41.85c0,.66.31,1.25.84,1.65Zm3.28-42.04l11.79-4.07v37.89l-11.79,3.73v-37.56Z"></path>
          <path class="cls-7" d="m336.39,334.23s.02-.04.04-.06h-38.98c-.02.19-.06.39-.1.58h38.7c.12-.16.23-.33.35-.52Z"></path>
          <path class="cls-7" d="m331.73,339.24s.02-.02.02-.02l.02-.02c.06-.04.12-.1.19-.14h-36.01c-.1.21-.21.39-.31.58h35.56c.19-.12.37-.27.54-.39Z"></path>
          <path class="cls-7" d="m324.92,363.5h-54.68c-.04.19-.06.39-.08.6h55.63c.21-.19-1.03-.39-.86-.6Z"></path>
          <path class="cls-7" d="m250.19,262.8h-20.77c-.04.21-.08.39-.14.6h20.13c.29-.23.56-.43.78-.6Z"></path>
          <path class="cls-7" d="m244.47,267.69h-16.25c-.04.21-.1.39-.17.6h15.8c.21-.21.41-.41.62-.6Z"></path>
          <path class="cls-7" d="m240.06,272.57h-13.28c-.06.21-.12.39-.19.6h13.02c.14-.21.31-.39.45-.6Z"></path>
          <path class="cls-7" d="m219.4,292.15c.1.18.18.37.27.57h14.04c-.09-.18-.14-.38-.24-.57h-14.07Z"></path>
          <path class="cls-7" d="m235.03,297.62c-.01-.2-.06-.4-.09-.58h-13.71c.06.2.1.38.14.58h13.66Z"></path>
          <path class="cls-7" d="m222.04,302.5h13.29c.01-.18.03-.37.01-.58h-13.33c.01.18.01.38.03.58Z"></path>
          <path class="cls-7" d="m221.74,307.39h12.92c.04-.18.09-.37.13-.57h-12.96c-.01.2-.04.38-.09.57Z"></path>
          <path class="cls-7" d="m234.9,282.94c.04-.18.09-.38.16-.57h-24.22c.27.18.54.37.8.57h23.27Z"></path>
          <path class="cls-7" d="m216.67,287.84h17.56c.03-.18.1-.37.11-.58h-18.13c.16.18.31.38.45.58Z"></path>
          <path class="cls-7" d="m18.2,273.81c.19.33.42.64.61.97-.34-.57-.71-1.12-1.04-1.69.14.24.28.48.43.72Z"></path>
          <path class="cls-7" d="m236.63,277.43h-13.28c-.16.17-.49.47-.63.6h13.46c.14-.21.31-.39.45-.6Z"></path>
          <path class="cls-7" d="m220.59,311.94h11.23c.04-.18.09-.37.13-.58h-11.16c-.06.2-.11.4-.2.58Z"></path>
          <path class="cls-7" d="m218.35,316.7h8.46c.01-.18.03-.37.01-.58h-8.15c-.1.2-.21.38-.33.58Z"></path>
          <path class="cls-7" d="m214.49,321.58h7.4c.04-.18.09-.37.13-.57h-6.98c-.17.18-.35.38-.54.57Z"></path>
          <path class="cls-7" d="m214.78,326.14c.04-.18.09-.37.13-.58h-5.68c-.35.21-.7.41-1.06.58h6.62Z"></path>
        </g>
      </g>
      <path class="cls-8" d="m30.47,300.04c.17.29.36.56.53.85-.3-.5-.62-.97-.91-1.48.12.21.25.42.38.63Z"></path>
      <path class="cls-7" d="m41,131.29c.22-.19.45-.37.68-.56-.23.19-.45.37-.68.56Z"></path>
      <path class="cls-7" d="m29.52,142.57s.02-.02.03-.03c0,.01-.02.02-.03.03Z"></path>
      <path class="cls-7" d="m18.36,262.29c.19.33.42.65.61.97-.34-.57-.72-1.12-1.05-1.7.14.24.28.48.43.73Z"></path>
    </g>
  </g>
</svg>
